<svg xmlns="http://www.w3.org/2000/svg" xmlns:xlink="http://www.w3.org/1999/xlink"><symbol fill="none" viewBox="0 0 138 18" id="arrow-card" xmlns="http://www.w3.org/2000/svg"><path d="M4.95 7.82H.39v2.28h4.56V7.82ZM105.7 10.1h-8.4V7.82h8.4v2.28Zm-16.79 0h-8.4V7.82h8.4v2.28Zm-16.79 0h-8.39V7.82h8.39v2.28Zm-16.79 0h-8.4V7.82h8.4v2.28Zm-16.79 0h-8.4V7.82h8.4v2.28Zm-16.79 0h-8.4V7.82h8.4v2.28ZM118.65 7.82h-4.56v2.28h4.56V7.82Z" fill="#C9C9C9"/><path d="m114.56 8.96-5-8.22.28-.19 13.4 5.32c4.67 1.03 9.34 2.05 14.01 3.08-4.67 1.03-9.34 2.05-14.01 3.08l-13.4 5.32-.28-.14 5-8.26v.01Z" fill="#C9C9C9"/></symbol><symbol fill="none" viewBox="0 0 91 80" id="bear-logo" xmlns="http://www.w3.org/2000/svg"><path fill-rule="evenodd" clip-rule="evenodd" d="m36.185 1.02.738-.106C42.55.105 47.367-.598 53.204 2.391c.07-.07.176-.14.352-.21.95-.388 1.97-.774 3.517-.915 1.02-.106 1.898 0 2.707.246 2.11.633 3.34 1.97 3.939 3.727.387 1.196.387 2.462.14 3.658-.281 1.371-.879 2.707-1.371 3.622-.035.07.176.527.352 1.16.21.844.422 1.688.527 2.813.211 2.286-.352 4.29-.95 6.119.423.352.669.703.915 1.055v.035c1.582 2.286 3.2 5.872 4.079 9.495.633 2.637.914 5.38.528 7.876.386.106.808.247 1.195.352.528.14 1.055.317 1.301.387.668.21 1.829.105 2.99 0 .527-.035 1.09-.106 2.039-.106.562 0 1.442-.21 2.356-.386 2.391-.493 4.817-1.02 7.56-.176l5.17 1.582-2.357 4.853c-1.02 2.075-2.356 3.622-3.903 4.782-.387.282-.774.528-1.16.774 0 1.864-.457 3.622-.81 5.17-.14.597.106-.528-.14.491l-.316 1.372-.985.95c-3.06 2.918-5.486 2.46-7.842 0-.879-.915-1.3-1.83-1.793-2.92-.528-1.125-1.301-2.813-3.165-2.531 0 0-.105 0-.176.07-.14.07-.387.176-.633.317-.351.351-.703.703-1.195 1.02-.14.738-.422 1.617-.88 2.707-.07.176-.07.211-.245.598-.387.914-.774 1.828-1.196 2.708-.985 1.898-2.321 3.516-4.08 4.571-1.793 1.09-3.867 1.583-6.223 1.196a9.919 9.919 0 0 1-2.568-.774c.036.88 0 1.723-.07 2.567-.281 2.462-1.16 4.642-2.848 6.365-1.266 1.266-2.919 2.215-4.958 2.637-7.701 1.688-12.484-2.707-15.508-8.72-.211-.423-.422-.845-.598-1.266-1.371 1.476-3.13 2.39-5.064 2.883-2.637.668-5.556.422-7.982-.317 0 0-.035 0-.352-.105-4.184-1.371-6.997-4.43-8.967-8.053-1.688-3.094-2.672-6.576-3.41-9.53C-.106 49.443-.317 43.43.773 37.768c.984-5.204 3.094-10.198 6.47-14.101C9.67 20.888 12.835 18.39 16 15.93c3.763-2.954 7.455-5.873 8.404-7.983.036-.105.141-.492.247-.914.703-2.637 1.441-5.521 5.38-6.646 2.426-.704 4.079-.14 5.732.457.351.105.351.281.527.246l-.105-.07Z" fill="#1C2245"/><path fill-rule="evenodd" clip-rule="evenodd" d="M34.884 37.029c2.215 2.883 3.376 7.138 1.547 10.549-1.758-.422-8.193-3.06-8.826-4.607-.88-2.11 5.872-5.556 7.279-5.942Zm-4.15 4.817c0 .95.317 1.372.703 1.477h.458c.527-.105 1.055-.598 1.055-.984 0-1.548-2.216-1.442-2.216-.493ZM44.554 43.85c2.532-.456 3.094-2.285 3.903-3.797.985-1.899 2.145-4.677 4.325-5.486.81.211 2.92 2.532 4.467 4.08 1.652 1.687 3.446 3.692 5.415 5.063 1.934 1.336 4.325 1.864 6.54 2.532 2.11.633 4.29.14 6.47.105 2.638-.07 5.908-1.547 8.475-.773-1.441 2.989-3.832 4.255-6.153 4.606 1.23 2.18.351 5.31-.176 7.596-2.743 2.637-1.618-8.194-10.514-6.681-.704.14-1.442.492-2.075.808-.774.387-1.23 1.16-1.97 1.583-.914.492-1.16 0-1.828-.774-.844-.914-1.617-1.899-2.567-2.672-1.582-1.301-3.763 0-5.697.105-4.641.176-10.022-1.3-14.558-2.18.739-2.075.774-4.466.457-6.19 0 0 2.11 2.744 5.521 2.11l-.035-.034Z" fill="#91CAEE"/><path fill-rule="evenodd" clip-rule="evenodd" d="M54.154 32.528c3.235 1.863 5.52 5.942 9.143 8.826 1.23-4.466-1.301-11.605-3.692-15.05-.106-.176-.176-.317-.317-.071-.809 1.512-4.747 4.185-5.134 6.295ZM51.165 53.345c-.598 2.215-1.723 4.044-1.301 6.47.422 2.356 2.04 4.115 4.36 4.501 2.497.422 4.36-1.125 5.486-3.34.492-.95.914-2.005 1.301-2.99.633-1.511.211-1.546-.879-2.531-1.266-1.125-2.356-3.587-4.255-2.849-.914.352-1.16.985-2.18.95-.739 0-2.286-.809-2.567-.211h.035Z" fill="#FAFCFA"/><path fill-rule="evenodd" clip-rule="evenodd" d="M30.629 9.143c0 .738 2.989-.739 3.797-1.97-.984-.527-1.266-1.09-2.707-1.09-.598 0-1.09 2.532-1.09 3.06Zm23.736-.844c.563 1.055 1.301 2.286 2.32 2.813.212-.316.458-.527.669-.95.352-.667.703-1.547.07-2.11-.703-.597-2.496-.034-3.06.212v.035ZM36.818 5.59c5.415-.773 9.951-1.582 15.12 1.336 2.216.528 3.447-.914 5.557-1.09 3.094-.28 1.828 2.92.984 4.502-1.16 2.144.14 4.22.352 6.505.176 2.04-.704 4.185-1.301 6.083-.457 1.513-.95 2.92-2.18 4.044-1.407 1.302-3.2 2.18-4.466 3.728-1.231 1.477-2.286 3.024-2.778 4.853-.387 1.371-.493 2.074-1.302 3.2-3.024-1.864-5.696-1.16-7.279.633-.597-1.055-.808-1.618-1.16-2.99-.246-.914-.844-4.22-1.407-4.782-.386.528-.457 1.09-.808 1.758-.282.528-1.266-.843-1.653-1.266-1.266-1.3-2.427-2.777-3.552-4.184-2.215-2.848-3.094-5.556-3.094-9.284h-.07s-1.196.668-1.337.844c-.809 4.044.95 7.315 2.708 10.901.738 1.477 2.074 2.532 1.969 4.255-.176 2.954-6.998 5.205-5.873 8.37 1.442 4.044 12.132 7.279 14.84 9.951 3.13 3.095 11.253 20.08 2.004 22.084-10.057 2.215-13.046-12.554-14.206-19.27-.703-4.01-2.813-6.822-4.607-10.41-2.18-4.395-2.004-6.997-1.863-11.217-3.27 2.075-2.497 9.108-1.302 12.413 1.759 4.818 6.224 12.519 4.642 17.759-1.266 4.22-6.294 4.465-9.81 3.305-5.838-1.934-8.054-8.967-9.355-14.242-2.04-8.474-.879-19.938 5.1-26.76 5.028-5.767 15.437-11.464 17.863-16.88.703-1.617.738-4.43 2.708-5.028 1.934-.563 3.622 1.125 5.626.844l-.07.035ZM48.21 29.327c1.125 0 1.97-1.652 1.97-2.707-.915 0-2.075-.352-4.045-.352-.387 1.583 1.02 3.06 2.075 3.06Zm-7.947-3.059c-.704 0-2.638.106-3.868.422-.246.07.246 1.23.562 1.688 1.09 1.688 3.763.105 3.341-1.864v-.21l-.035-.036Z" fill="#FAFCFA"/></symbol><symbol fill="none" viewBox="0 0 22 21" id="burger-line" xmlns="http://www.w3.org/2000/svg"><path d="M17.557 15.75H3.511m14.046-5.25H3.511m14.046-5.25H3.511" stroke="#fff" stroke-width="2" stroke-linecap="round"/></symbol><symbol fill="none" viewBox="0 0 41 43" id="card-perimost-1" xmlns="http://www.w3.org/2000/svg"><path d="M27.802 23.51c1.341-.36 2.33-.974 3.273-2.008.897-.997 1.42-1.995 1.772-3.39.148-.588.16-.756.17-1.91 0-1.19-.01-1.31-.17-1.875-.09-.337-.318-.902-.489-1.274-1.692-3.618-5.919-5.133-9.327-3.354-3.125 1.647-4.613 5.349-3.557 8.87.807 2.693 2.909 4.604 5.567 5.06.762.133 2.011.073 2.761-.131m5.34 5.985c-.727-.78-1.783-1.322-3.135-1.598-.807-.168-2.864-.469-4.966-.745-2.101-.277-2.51-.385-3.51-.914-2.75-1.478-4.34-1.947-7.033-2.067-1.261-.06-1.273-.06-1.614-.685-.159-.289-.284-.59-.284-.698 0-.156.16-.324 1-1.07 1.182-1.057 1.239-1.105 1.205-1.334-.091-.528-.387-1.586-.478-1.682-.08-.084-.5-.18-1.431-.36-.932-.17-1.364-.277-1.443-.361-.136-.145-.136-.205-.125-1.876.011-1.322.011-1.358.159-1.454.08-.048.727-.204 1.443-.336.795-.145 1.34-.289 1.409-.349a.71.71 0 0 0 .147-.313c.023-.12.114-.492.205-.84.148-.554.159-.65.08-.782-.046-.084-.523-.53-1.057-.998-.534-.469-1-.913-1.034-.986a.58.58 0 0 1-.034-.276c.034-.156 1.227-2.368 1.363-2.548.137-.18.398-.12 1.625.36.659.253 1.25.47 1.318.47.182 0 1.363-1.263 1.363-1.455 0-.084-.193-.721-.443-1.43-.238-.71-.443-1.359-.443-1.443 0-.192.137-.3 1.454-1.106.591-.36 1.046-.6 1.148-.6.144 0 .53.4 1.159 1.201.42.541.795.998.83 1.022.113.084.397.06.874-.084.25-.072.58-.168.727-.204.16-.037.296-.12.341-.205.034-.072.16-.733.284-1.454.239-1.455.25-1.527.42-1.623.069-.036.728-.06 1.512-.06h1.397l.125.18c.068.096.137.24.137.313 0 .084.102.685.215 1.346.182.986.239 1.226.364 1.358.159.169 1.193.493 1.556.493.167 0 .599-.44 1.296-1.322.681-.866.772-.95.954-.95.136 0 .545.217 1.273.661.59.361 1.125.71 1.181.77a.54.54 0 0 1 .114.312c0 .108-.205.781-.443 1.49-.25.71-.443 1.335-.443 1.383 0 .156 1.215 1.418 1.374 1.418.08 0 .682-.216 1.341-.469.66-.252 1.273-.468 1.364-.468.204 0 .295.096.579.649.125.252.42.781.636 1.166.25.432.398.781.398.901 0 .229-.17.409-1.318 1.418-.432.373-.807.734-.84.806-.046.084 0 .312.124.805.102.385.182.745.182.806 0 .06.045.18.114.252.09.12.363.18 1.5.397 1.079.204 1.408.288 1.476.384.069.096.08.469.08 1.623 0 1.406 0 1.502-.125 1.623-.068.072-.148.132-.182.132-.17 0-2.59.493-2.681.54-.068.037-.137.145-.148.253-.023.096-.114.493-.216.877-.125.493-.159.734-.125.818.034.06.42.445.864.841 1.17 1.046 1.283 1.166 1.283 1.383 0 .12-.193.528-.465 1.045a74.69 74.69 0 0 0-.682 1.25c-.114.217-.273.421-.352.445-.136.06-.602-.096-2.011-.661-.386-.156-.739-.276-.807-.276-.068 0-.386.288-.716.637-.511.54-.602.673-.602.853 0 .12.193.757.41 1.418.544 1.587.556 1.575-.194 2.032-.318.192-.59.348-.602.348-.023 0-.205-.18-.41-.409l-.01.012Zm-32.63 9.16a.837.837 0 0 1-.364-.313L0 38.102v-6.527c0-7.188-.022-6.875.387-7.092.181-.096.431-.12 1.863-.12 1.431 0 1.67.012 1.863.108.443.229.41-.264.432 6.912.011 4.495 0 6.574-.046 6.743a.827.827 0 0 1-.272.408c-.205.145-.25.157-1.852.169-1.17 0-1.716 0-1.863-.072v.012Zm20.223 4.242c-.818-.228-3.192-1.322-6.964-3.22-5.5-2.753-5.409-2.717-6.726-2.886-.728-.084-1.012-.216-1.182-.54-.125-.229-.125-.361-.148-4.592-.011-2.957 0-4.435.046-4.603.08-.289.363-.553.681-.662a32.186 32.186 0 0 1 4.988-1.117c1.227-.169 3.727-.169 4.624 0 1.761.324 3.363.937 5.295 2.007.954.54 1.67.721 3.352.841 3.136.24 6.078.866 7.112 1.503.898.553 1.284 1.514.989 2.452-.364 1.154-1.148 1.91-2.068 1.983-.205.012-1.375-.048-2.614-.132-4.624-.349-5.055-.373-6.021-.3-.886.06-1 .083-.932.168.102.108 2.159.997 2.784 1.19 1.5.48 2.5.54 4.658.312 3.76-.409 4.124-.54 6.056-2.26 1.09-.973 2.272-1.466 3.386-1.418.488.024.613.048.988.252.943.517 1.125 1.323.477 2.104-.136.168-.25.324-.25.36 0 .037.08.109.16.157.283.168.465.444.465.745 0 .3-.227.83-.5 1.178-.181.24-.863.841-1.613 1.442-.716.577-3.965 2.897-4.329 3.09-.67.348-1.409.552-2.965.78-.523.085-1.864.29-2.977.481-5.204.866-5.851.926-6.772.661v.025Z" fill="#fff"/></symbol><symbol fill="none" viewBox="0 0 36 43" id="card-perimost-2" xmlns="http://www.w3.org/2000/svg"><path fill-rule="evenodd" clip-rule="evenodd" d="M16.225 7.004c-1.016-.534-2.02-1.174-2.992-1.766-.497-.303-1.071-.721-1.778-.43-.519.22-.96.801-.839 1.58.11.72.619.988 1.126 1.29 1.49.872 2.97 1.837 4.483 2.662v8.95l-1.8-1.081c-.707-.419-5.078-3.185-5.564-3.36.01-1.313.033-2.65.033-3.963 0-1.383.298-2.731-.696-3.312-.949-.57-2.031.128-2.042 1.522-.011 1.337-.033 2.685-.033 4.033-.486-.22-1.016-.604-1.49-.883-.497-.29-.972-.593-1.447-.883-.331-.198-1.137-.756-1.48-.849C.15 10.096-.49 12.142.417 12.978c.474.442 2.207 1.372 2.87 1.779.242.15.463.279.706.43.155.093.243.15.375.22.045.024.133.07.188.117l.166.162c-.795.396-1.579.965-2.352 1.453-.762.477-1.932.895-1.832 2.104.044.546.408.988.783 1.174.586.29 1.082.081 1.524-.198.817-.523 1.579-.976 2.385-1.487.408-.256.761-.477 1.18-.733 1.569-.953.774-.813 3.6.849.707.418 4.24 2.673 4.836 2.917-.31.349-1.877 1.186-2.352 1.465L8.31 25.775c-.199.128-.42.29-.63.395-.264.14-.364-.023-.607-.174l-1.81-1.116c-.806-.511-1.601-.976-2.385-1.488-.42-.279-.861-.5-1.468-.255-.42.174-.795.604-.85 1.15-.155 1.279.993 1.65 1.788 2.139.42.256.773.476 1.181.732.387.233.85.57 1.215.732l-.32.256c-.828.5-3.566 2.069-3.986 2.453-.95.871-.199 2.94 1.336 2.452.364-.116 1.104-.628 1.468-.849.365-.22 2.738-1.708 2.904-1.72 0 1.314.022 2.639.033 3.952.011 1.488 1.049 2.115 1.998 1.604 1.027-.546.74-1.871.74-3.266 0-1.325-.022-2.685-.033-4.022l7.342-4.44.022 8.95c-1.016.5-3.357 1.988-4.494 2.662-.508.302-1.026.57-1.126 1.29-.1.744.32 1.371.84 1.58.916.36 2.141-.674 3.278-1.313.475-.279 1.016-.65 1.502-.883.022 1.278 0 2.592 0 3.882 0 .593-.078 1.313.176 1.79.188.349.63.732 1.17.732.575 0 .994-.337 1.204-.697.287-.477.199-1.174.199-1.767 0-1.302-.022-2.638 0-3.94.618.244 2.318 1.36 3.003 1.767.485.29 1.06.732 1.766.43.53-.233.983-.78.84-1.628-.122-.743-.62-.93-1.15-1.255-.518-.314-.982-.57-1.49-.895-.706-.453-2.197-1.209-2.804-1.662-.21-.163-.088-.023-.165-.197v-8.834c.298.116.64.372.916.535l2.771 1.697c.607.372 1.204.72 1.822 1.104.585.36 1.225.813 1.844 1.104a237.99 237.99 0 0 0-.034 3.963c0 1.372-.298 2.732.696 3.313.938.558 2.042-.081 2.042-1.523 0-1.348.033-2.684.033-4.044.96.348 3.61 2.382 4.416 2.603 1.546.419 2.22-1.604 1.292-2.464-.662-.604-3.157-1.836-4.129-2.545l-.154-.14c.33-.256.806-.511 1.159-.732.784-.488 1.59-.93 2.351-1.465.884-.604.873-2.045-.132-2.545-.607-.302-1.049-.081-1.513.198l-3.566 2.208c-1.49.918-.761.849-3.599-.848-.651-.396-4.272-2.685-4.835-2.918.077-.093 6.27-3.928 7.165-4.405.265-.14.353.012.607.163l4.195 2.603c.43.268.84.523 1.458.256.441-.186.783-.546.86-1.15.155-1.256-1.015-1.651-1.777-2.14-.397-.255-.784-.487-1.181-.731-.409-.256-.817-.465-1.203-.756.165-.197.452-.314.673-.453.707-.419 3.202-1.86 3.61-2.232.972-.906.199-2.952-1.336-2.452-.839.267-3.908 2.557-4.372 2.569 0-1.314-.022-2.639-.033-3.952-.01-1.616-1.148-2.07-2.009-1.604-1.027.558-.74 1.86-.729 3.266 0 1.325.022 2.673.033 4.01-.982.534-6.668 4.149-7.363 4.451v-8.833c.044-.22.508-.384.684-.511l3.732-2.22c.53-.303 1.06-.57 1.181-1.279.143-.837-.287-1.395-.795-1.616-.762-.337-1.28.093-1.777.396-.508.302-.983.58-1.49.895-.365.22-1.193.767-1.546.895-.023-1.279 0-2.592 0-3.882 0-.593.077-1.314-.177-1.79C18.62.984 18.168.6 17.626.6a1.39 1.39 0 0 0-1.203.697c-.276.477-.198 1.163-.198 1.767 0 1.302.022 2.638 0 3.94Z" fill="#fff"/></symbol><symbol fill="none" viewBox="0 0 40 37" id="card-perimost-3" xmlns="http://www.w3.org/2000/svg"><path d="M3.762 8.839a2.126 2.126 0 0 1-3.132-.03c-.852-.919-.837-2.403.029-3.321 7.78-8.079 14.015-4.131 20.25-.199 4.88 3.075 9.744 6.15 15.258-.046a2.127 2.127 0 0 1 3.132-.107c.895.887.938 2.372.1 3.32-7.952 8.936-14.347 4.896-20.755.857-4.764-3.014-9.541-6.028-14.882-.49" fill="#fff"/><path d="M3.762 20.038a2.126 2.126 0 0 1-3.132-.03c-.852-.918-.837-2.402.029-3.32 7.78-8.079 14.015-4.131 20.25-.2 4.88 3.076 9.744 6.152 15.258-.045a2.127 2.127 0 0 1 3.132-.107c.895.887.938 2.371.1 3.32-7.952 8.935-14.347 4.896-20.755.857-4.764-3.014-9.541-6.029-14.882-.49" fill="#fff"/><path d="M3.762 31.238a2.126 2.126 0 0 1-3.132-.03c-.852-.918-.837-2.402.029-3.32 7.78-8.079 14.015-4.132 20.25-.2 4.88 3.076 9.744 6.151 15.258-.045a2.127 2.127 0 0 1 3.132-.107c.895.887.938 2.371.1 3.32-7.952 8.935-14.347 4.896-20.755.856-4.764-3.014-9.541-6.028-14.882-.49" fill="#fff"/></symbol><symbol fill="none" viewBox="0 0 50 34" id="card-perimost-4" xmlns="http://www.w3.org/2000/svg"><path fill-rule="evenodd" clip-rule="evenodd" d="M45.85 29.728c-.533 2.452-2.602 4.28-5.071 4.28-2.47 0-4.55-1.828-5.073-4.28H26.04c-.534 2.452-2.603 4.28-5.072 4.28-2.47 0-4.55-1.828-5.073-4.28-1.301-.012-2.169-.425-2.903-1.05-.7-.601-1.335-1.757-1.335-2.747v-7.299c0-1.073 1.624-1.863 2.514-.695.29.365.256.719.256 1.356v3.242c0 .967-.167 3.078.19 3.856.255.542.589.931 1.245.955.5-2.5 2.592-4.375 5.095-4.375 2.502 0 4.594 1.875 5.094 4.375h5.584V5.462c0-.648-.39-1.19-.8-1.438-.257-.154-.368-.177-.613-.19H1.413C.635 3.835 0 3.164 0 2.338 0 1.512.634.84 1.413.84H30.69c.1 0 .189 0 .289.035 1.757.248 3.482 1.899 3.482 3.82v3.137c1.768 0 8.03-.153 9.132.354.79.365 1.28.754 1.735 1.497.623.979 3.96 5.943 4.383 7.063.144.377.289.837.289 1.368v7.852c0 .53-.234 1.215-.412 1.592-.678 1.403-2.024 2.158-3.715 2.158M20.99 25.353c1.624 0 2.948 1.403 2.948 3.125 0 1.721-1.324 3.124-2.948 3.124-1.624 0-2.948-1.403-2.948-3.124 0-1.722 1.324-3.125 2.948-3.125Zm19.81 0c1.625 0 2.949 1.403 2.949 3.125 0 1.721-1.324 3.124-2.948 3.124-1.624 0-2.948-1.403-2.948-3.124 0-1.722 1.324-3.125 2.948-3.125Zm-6.506 2.028h1.401c.478-2.523 2.58-4.421 5.106-4.421 2.525 0 4.616 1.898 5.106 4.41.8-.107 1.423-.826 1.423-1.71v-6.803c.012-.543 0-.956-.178-1.262l-3.66-5.848c-.489-.79-1-1.404-1.901-1.404h-5.673c-.89 0-1.624.779-1.624 1.722v15.328-.012ZM5.328 6.122h14.327c.779 0 1.413.672 1.413 1.498 0 .825-.634 1.497-1.413 1.497H5.328c-.779 0-1.413-.672-1.413-1.497 0-.826.635-1.498 1.413-1.498ZM9.3 11.747h10.356c.779 0 1.413.672 1.413 1.497 0 .825-.634 1.497-1.413 1.497H9.3c-.778 0-1.412-.672-1.412-1.497 0-.825.634-1.497 1.412-1.497Z" fill="#fff"/></symbol><symbol fill="none" viewBox="0 0 24 24" id="clock-forward" xmlns="http://www.w3.org/2000/svg"><path d="m14.625 14.25-3.375-1.125V8.421m9 3.579a9 9 0 1 0-1.204 4.5m-1.265-5.488 2.25 2.25 2.25-2.25" stroke="currentColor" stroke-width="2" stroke-linecap="round" stroke-linejoin="round"/></symbol><symbol fill="none" viewBox="0 0 24 24" id="close" xmlns="http://www.w3.org/2000/svg"><path d="M18 6 6 18m12 0L6 6" stroke="#172049" stroke-width="2" stroke-linecap="round"/></symbol><symbol fill="none" viewBox="0 0 199 199" id="logo" xmlns="http://www.w3.org/2000/svg"><g clip-path="url(#ja)"><path d="M99.505 199.01c54.955 0 99.505-44.55 99.505-99.505S154.46 0 99.505 0 0 44.55 0 99.505s44.55 99.505 99.505 99.505Z" fill="#172049"/><path fill-rule="evenodd" clip-rule="evenodd" d="M15.257 88.551c.205-1.578.633-2.923 1.306-4.024.672-1.101 1.53-1.91 2.592-2.427 1.052-.506 2.232-.682 3.537-.516 1.306.165 2.398.623 3.294 1.384.897.76 1.53 1.754 1.9 2.991.37 1.238.458 2.641.254 4.22l-.312 2.465 4.2.536-.731 5.76-17.083-2.174 1.043-8.224v.01Zm8.4 1.443c.098-.78 0-1.394-.302-1.823-.302-.438-.77-.692-1.403-.77-.634-.077-1.15.05-1.55.4-.4.35-.653.906-.75 1.686l-.263 2.095 4.005.507.263-2.095Zm.73-30.697-2.055 5.214 5.447 5.954-8 .516-2.252 5.701 13.721-1.676c.215.39.341.75.37 1.082.03.34-.038.701-.194 1.1-.166.43-.478.936-.926 1.54l3.391 2.797c.838-.886 1.462-1.841 1.871-2.855a6.832 6.832 0 0 0 .322-4.093c-.312-1.403-1.033-2.767-2.164-4.093l-9.52-11.187h-.01Zm22.629-.955c-1.121 1.433-2.437 2.485-3.938 3.158-1.5.672-3.05.916-4.638.72-1.588-.194-3.07-.828-4.434-1.9-1.364-1.071-2.329-2.358-2.894-3.858-.565-1.501-.692-3.06-.39-4.678.302-1.618 1.013-3.148 2.144-4.57 1.033-1.316 2.193-2.31 3.46-2.972 1.276-.663 2.611-.994 4.014-.975l.312 4.902c-1.715 0-3.02.575-3.908 1.715-.75.955-1.042 1.959-.886 3.02.156 1.063.75 1.998 1.783 2.807 1.033.809 2.085 1.17 3.148 1.072 1.071-.097 1.978-.623 2.728-1.578.897-1.13 1.14-2.534.74-4.21l4.834-.858a8.242 8.242 0 0 1 0 4.132c-.35 1.394-1.033 2.748-2.066 4.064l-.01.01Zm12.697-12.21c1.316-1.033 2.31-2.183 2.972-3.46.663-1.276.994-2.611.975-4.014l-4.902-.312c0 1.715-.575 3.02-1.715 3.908-.955.75-1.959 1.042-3.021.886-1.062-.156-1.998-.75-2.806-1.783-.81-1.033-1.17-2.085-1.072-3.148.097-1.072.623-1.978 1.578-2.728 1.13-.887 2.534-1.14 4.21-.74l.858-4.834a8.243 8.243 0 0 0-4.132 0c-1.394.35-2.748 1.033-4.064 2.066-1.432 1.12-2.485 2.436-3.157 3.937-.673 1.5-.916 3.05-.721 4.638.195 1.589.828 3.07 1.9 4.434 1.072 1.364 2.358 2.33 3.859 2.894 1.5.566 3.06.692 4.677.39 1.618-.302 3.148-1.013 4.57-2.144l-.009.01Zm15.494-18.476 7.981 6.373-6.09 2.397-5.35-4.58-1.51.595 2.28 5.788-5.399 2.134-6.315-16.02 5.4-2.135 2.357 5.974 1.647-.653 1.053-7.318 5.632-2.222-1.695 9.657.01.01Zm7.114-10.807 2.173 17.082 5.438-.691 4.726-9.6 1.12 8.859 5.663-.721-2.174-17.083-5.418.692-4.755 9.628-1.13-8.887-5.662.72h.02Zm25.317-1.598 5.623 1.003-1.579 8.82 7.407-7.777 5.379.965-3.031 16.946-5.613-1.004 1.569-8.79-7.377 7.757-5.399-.964 3.031-16.947-.01-.01Zm8.576.536c1.871.33 3.294.233 4.258-.312.965-.546 1.569-1.51 1.813-2.895l-3.801-.682c-.097.546-.282.926-.565 1.12-.273.206-.692.254-1.237.157-.546-.098-.907-.293-1.082-.565-.176-.283-.215-.692-.117-1.248l-3.801-.682c-.243 1.384-.019 2.505.673 3.343.701.838 1.988 1.432 3.859 1.764Zm38.697 18.486-12.815 7.181c-1.52.858-3.001 1.297-4.434 1.335a6.855 6.855 0 0 1-3.956-1.1c-.926-.595-1.745-1.384-2.446-2.388l3.391-2.787c.497.555.945.955 1.335 1.208.361.234.702.36 1.043.4.331.039.711-.01 1.13-.146l1.004-13.79 5.155 3.304-1.033 7.952 6.899-4.2 4.717 3.03h.01Zm15.319 16.692-9.521-10.992-5.223 4.23c-1.033.828-1.901 1.471-2.593 1.92-.691.448-1.335.71-1.91.798-.584.078-1.071-.107-1.471-.565a2.915 2.915 0 0 1-.361-.536l-3.703 2.816c.41.8.868 1.482 1.365 2.066.994 1.15 2.095 1.754 3.293 1.793 1.199.05 2.505-.321 3.908-1.11 1.403-.78 3.06-1.96 4.96-3.518l1.54-1.267 2.573 2.972-9.609 8.322 3.732 4.317 13.02-11.275v.03Zm-7.962 22.004c-.76-1.685-1.101-3.362-1.004-5.028.098-1.666.595-3.157 1.501-4.483.906-1.325 2.144-2.348 3.713-3.05 1.569-.711 3.147-.965 4.746-.77 1.588.195 3.04.81 4.356 1.842 1.305 1.023 2.348 2.388 3.108 4.074.76 1.685 1.101 3.361 1.004 5.028-.098 1.666-.595 3.157-1.501 4.483-.906 1.325-2.144 2.348-3.713 3.05-1.569.711-3.147.964-4.745.77-1.589-.195-3.041-.81-4.356-1.842-1.306-1.024-2.349-2.388-3.109-4.074Zm4.278-1.939c.292.653.731 1.18 1.286 1.56.566.39 1.209.603 1.94.652.73.049 1.491-.107 2.29-.468.789-.36 1.413-.828 1.861-1.403.448-.584.711-1.208.799-1.88a3.763 3.763 0 0 0-.322-1.998 3.679 3.679 0 0 0-1.286-1.56 3.682 3.682 0 0 0-1.939-.643c-.731-.048-1.491.108-2.29.468-.79.36-1.413.829-1.861 1.413-.449.585-.712 1.209-.8 1.881-.078.672.03 1.345.322 1.998v-.02Zm11.148 24.791c-.224 1.004-.633 1.803-1.247 2.388-.614.594-1.403.945-2.378 1.072-1.53.194-2.816-.254-3.859-1.355-1.043-1.101-1.705-2.758-1.978-4.97l-1.16-9.13 17.083-2.174 1.101 8.663c.273 2.115.088 3.8-.546 5.068-.633 1.266-1.656 1.988-3.069 2.163-.819.107-1.55 0-2.222-.302-.663-.302-1.238-.78-1.715-1.433l-.01.01Zm.614-7.67.312 2.437c.117.945.594 1.364 1.423 1.257.857-.107 1.237-.633 1.111-1.579l-.312-2.436-2.534.322Zm-6.081 4.026c.117.945.634 1.354 1.55 1.237.877-.107 1.257-.643 1.14-1.579l-.409-3.196-2.68.341.409 3.197h-.01Z" fill="#94CBF0"/><path fill-rule="evenodd" clip-rule="evenodd" d="m86.01 46.912 1.111-.156c8.507-1.228 15.787-2.27 24.645 2.222.127-.088.292-.215.555-.312 1.462-.575 2.963-1.17 5.331-1.384h.029c1.53-.136 2.894 0 4.112.351 3.197.935 5.048 2.972 5.945 5.662.604 1.822.604 3.722.234 5.545-.41 2.046-1.306 4.073-2.057 5.466-.058.117.283.79.517 1.735.312 1.267.633 2.563.779 4.249.312 3.469-.506 6.48-1.422 9.277.643.526.994 1.043 1.364 1.598l.049.068c2.377 3.47 4.823 8.888 6.158 14.355.975 3.995 1.384 8.156.819 11.898.594.185 1.208.361 1.813.536.799.234 1.588.458 1.958.575.994.302 2.739.166 4.502.019a47.373 47.373 0 0 1 3.07-.175c.828-.02 2.183-.302 3.557-.594 3.606-.751 7.309-1.53 11.45-.264l7.825 2.388-3.576 7.318c-1.53 3.138-3.576 5.496-5.905 7.231-.575.429-1.17.819-1.764 1.169-.049 2.797-.682 5.467-1.238 7.816-.214.906.176-.79-.185.77l-.478 2.046-1.52 1.442c-4.619 4.385-8.273 3.723-11.859-.048-1.306-1.374-1.949-2.758-2.719-4.405-.789-1.686-1.969-4.229-4.795-3.84-.039.01-.136.049-.253.098-.234.097-.594.282-.965.468l.02.019s.058 0 .029.029c-.536.527-1.072 1.043-1.812 1.56-.205 1.101-.653 2.426-1.355 4.102-.107.253-.117.292-.38.916-.565 1.364-1.15 2.768-1.822 4.083-1.472 2.846-3.528 5.301-6.188 6.929-2.709 1.647-5.857 2.387-9.414 1.803a15.163 15.163 0 0 1-3.898-1.189 24.49 24.49 0 0 1-.097 3.878c-.4 3.703-1.735 7.017-4.327 9.609-1.929 1.929-4.405 3.323-7.523 4.005-11.655 2.553-18.886-4.093-23.485-13.185a43.987 43.987 0 0 1-.916-1.939c-2.066 2.222-4.746 3.605-7.67 4.346-3.975 1.004-8.419.643-12.093-.468h-.029c-.107-.029-.059-.029-.546-.185h-.029c-6.354-2.085-10.602-6.714-13.565-12.162-2.563-4.706-4.063-9.949-5.135-14.422-1.852-7.698-2.164-16.81-.527-25.376 1.501-7.893 4.658-15.445 9.784-21.312 3.645-4.18 8.459-7.97 13.224-11.723 5.681-4.473 11.265-8.887 12.698-12.083.068-.147.224-.75.39-1.365 1.062-4.014 2.202-8.351 8.117-10.066 3.674-1.072 6.159-.205 8.683.682.506.175.545.42.78.39Z" fill="#172049"/><path fill-rule="evenodd" clip-rule="evenodd" d="M84.032 101.366c3.333 4.346 5.097 10.817 2.329 15.943-2.65-.643-12.386-4.6-13.36-6.948-1.326-3.197 8.887-8.41 11.031-8.995Zm-6.256 7.309c0 1.442.477 2.076 1.081 2.231h.692c.8-.185 1.579-.906 1.579-1.491 0-2.358-3.352-2.182-3.352-.74ZM98.65 111.657c3.829-.702 4.687-3.45 5.875-5.73 1.482-2.856 3.245-7.095 6.539-8.303 1.209.331 4.415 3.81 6.744 6.169 2.524 2.553 5.213 5.564 8.215 7.63 2.913 2.007 6.548 2.797 9.871 3.82 3.177.974 6.51.234 9.804.146 3.985-.107 8.916-2.339 12.795-1.16-2.203 4.522-5.769 6.442-9.326 6.978 1.851 3.313.516 8.049-.283 11.508-4.171 3.966-2.446-12.405-15.894-10.095-1.052.204-2.192.75-3.128 1.227-1.199.614-1.871 1.774-2.962 2.368-1.384.761-1.735-.039-2.768-1.179-1.267-1.393-2.465-2.855-3.908-4.044-2.377-1.958-5.7.049-8.634.156-7.026.254-15.153-1.998-22.004-3.284 1.131-3.138 1.17-6.763.692-9.374 0-.02 3.197 4.122 8.371 3.176v-.009Z" fill="#94CBF0"/><path fill-rule="evenodd" clip-rule="evenodd" d="M113.169 94.555c4.873 2.826 8.351 9.004 13.809 13.35 1.88-6.753-1.959-17.54-5.555-22.783-.175-.254-.292-.497-.497-.098-1.199 2.28-7.201 6.354-7.757 9.53ZM108.638 126.05c-.897 3.372-2.612 6.1-1.959 9.764.633 3.586 3.089 6.218 6.607 6.792 3.791.624 6.578-1.705 8.303-5.047.731-1.423 1.354-3.031 1.978-4.502.955-2.261.302-2.349-1.335-3.84-1.891-1.705-3.557-5.428-6.432-4.307-1.413.555-1.764 1.491-3.294 1.442-1.14-.039-3.44-1.199-3.859-.302h-.009Z" fill="#FBFDFC"/><path fill-rule="evenodd" clip-rule="evenodd" d="M77.59 59.18c0 1.13 4.522-1.11 5.77-2.972-1.501-.799-1.9-1.676-4.093-1.676-.916 0-1.676 3.81-1.676 4.649Zm35.91-1.305c.848 1.598 1.949 3.44 3.538 4.278.331-.497.662-.81.994-1.423.536-1.004 1.091-2.358.088-3.187-1.063-.877-3.752-.078-4.61.332h-.01ZM86.985 53.8c8.215-1.17 15.026-2.416 22.871 2.047 3.362.818 5.213-1.364 8.419-1.657 4.678-.419 2.787 4.424 1.501 6.831-1.744 3.255.195 6.364.507 9.862.273 3.07-1.072 6.315-1.988 9.209-.711 2.27-1.423 4.385-3.304 6.12-2.134 1.968-4.814 3.303-6.753 5.632-1.842 2.212-3.44 4.56-4.21 7.348-.565 2.056-.76 3.118-1.958 4.863-4.59-2.797-8.615-1.774-11.002.955-.877-1.589-1.199-2.476-1.774-4.541-.37-1.355-1.247-6.393-2.153-7.231-.585.77-.702 1.676-1.248 2.64-.438.79-1.92-1.286-2.495-1.89-1.9-1.988-3.683-4.18-5.369-6.324-3.372-4.288-4.658-8.43-4.677-14.013l-.108-.069c-.234-.058-1.793 1.082-2.017 1.355-1.247 6.1 1.442 11.05 4.103 16.478 1.091 2.232 3.138 3.83 2.972 6.432-.283 4.444-10.583 7.884-8.897 12.659 2.163 6.129 18.369 11.002 22.423 15.036 4.707 4.707 17.024 30.355 3.03 33.425-15.23 3.333-19.723-18.964-21.487-29.127-1.052-6.052-4.258-10.301-6.968-15.758-3.313-6.656-3.04-10.583-2.806-16.985-4.97 3.128-3.79 13.779-1.988 18.749 2.64 7.279 9.394 18.915 7.007 26.857-1.93 6.392-9.53 6.772-14.861 5.018-8.81-2.894-12.2-13.545-14.13-21.565-3.07-12.805-1.316-30.16 7.727-40.5 7.611-8.721 23.359-17.326 27.042-25.55 1.092-2.437 1.111-6.725 4.093-7.592 2.914-.848 5.496 1.715 8.507 1.286h-.01Zm17.209 35.89c1.725 0 2.982-2.504 2.982-4.092-1.374-.03-3.109-.556-6.139-.556-.556 2.398 1.549 4.649 3.167 4.649h-.01Zm-12.035-4.628c-1.043-.04-3.995.165-5.876.633-.38.098.38 1.842.828 2.544 1.657 2.563 5.691.136 5.048-2.836v-.341Z" fill="#FBFDFC"/><path fill-rule="evenodd" clip-rule="evenodd" d="M26.222 118.517c.215.916.244 1.754.098 2.505-.146.75-.458 1.374-.945 1.88-.488.497-1.102.838-1.862 1.014-.76.175-1.462.146-2.114-.098-.653-.234-1.209-.662-1.677-1.276-.457-.614-.799-1.374-1.013-2.3l-.331-1.433-2.446.566-.77-3.353 9.95-2.299 1.1 4.794h.01Zm-4.97.926c.108.458.283.77.546.955.254.185.565.224.936.146.37-.088.633-.263.78-.536.155-.273.175-.643.067-1.091l-.282-1.218-2.33.536.283 1.218v-.01Zm5.272 10.057-.867-1.93 2.855-1.286-1.393-3.089-9.306 4.2 2.085 4.609c.565 1.247 1.296 2.105 2.202 2.563.906.458 1.9.438 2.992-.059 1.013-.458 1.637-1.12 1.87-1.978.235-.857.089-1.871-.438-3.04v.01Zm-4.531 1.305-.594-1.315 2.056-.936.594 1.316c.332.731.185 1.228-.438 1.51-.351.156-.683.186-.965.069-.292-.117-.507-.332-.653-.653v.009Zm9.414 1.881 1.393 3.08-9.306 4.2-1.394-3.09 9.307-4.2v.01Zm2.114 4.19-8.575 5.545 2.923 4.522c.731 1.13 1.56 1.861 2.466 2.173.906.312 1.802.185 2.68-.38.837-.546 1.305-1.238 1.383-2.085.088-.848-.214-1.793-.887-2.836l-1.325-2.047.994-.643 2.972 4.59 2.183-1.413-4.814-7.435v.009Zm-3.752 8.566-.955-1.481 1.375-.887.954 1.481c.39.605.37 1.053-.078 1.335-.224.147-.457.186-.682.098-.224-.078-.428-.263-.614-.546Zm7.748 11.041-2.563-2.914-1.793.663-2.31-2.631 10.622-3.381 2.232 2.543-4.736 10.086-2.349-2.68.887-1.686h.01Zm1.237-2.348 1.277-2.437-2.583.946 1.306 1.491Zm14.276 5.389 2.758 1.958-3.07 4.337 5.935-2.3 2.641 1.871-5.905 8.332-2.758-1.959 3.06-4.317-5.915 2.3-2.651-1.881 5.905-8.332v-.009Zm21.342 22.461 1.48-4.414-3.312 2.807-1.433-.497-.935-4.103-1.462 4.249-2.962-1.023 3.313-9.658 2.68.916 1.374 6.227 4.833-4.092 2.68.916-3.294 9.666-2.962-1.023v.029Zm10.797 2.788c1.082.185 2.095.126 3.03-.176a5.193 5.193 0 0 0 2.35-1.53c.623-.721 1.022-1.579 1.198-2.582a5.156 5.156 0 0 0-.273-2.836c-.35-.887-.926-1.627-1.705-2.222-.79-.594-1.725-.984-2.807-1.169-1.082-.185-2.095-.127-3.03.175a5.202 5.202 0 0 0-2.35 1.53c-.623.721-1.022 1.579-1.198 2.583a5.153 5.153 0 0 0 .273 2.835 5.14 5.14 0 0 0 1.706 2.222c.789.595 1.724.984 2.806 1.17Zm.468-2.749a2.176 2.176 0 0 1-1.092-.506 2.272 2.272 0 0 1-.662-1.014c-.137-.409-.166-.877-.078-1.384.087-.506.263-.935.526-1.276.263-.341.585-.595.965-.741a2.26 2.26 0 0 1 1.198-.117c.42.069.79.244 1.092.507.302.263.526.604.662 1.014.137.409.166.877.078 1.383-.087.507-.263.936-.526 1.277a2.233 2.233 0 0 1-.965.741 2.25 2.25 0 0 1-1.198.116Zm12.62-6.46c.945.019 1.763.185 2.455.506.692.322 1.228.78 1.598 1.374.371.595.546 1.277.536 2.057-.01.779-.214 1.452-.604 2.036-.39.575-.935 1.014-1.647 1.316-.701.302-1.53.438-2.475.419l-1.472-.029-.048 2.504-3.44-.058.175-10.213 4.912.088h.01Zm-.313 5.038c.468 0 .82-.088 1.053-.293.234-.204.36-.497.36-.877s-.107-.672-.33-.886c-.235-.215-.576-.322-1.043-.332l-1.258-.019-.039 2.387 1.258.02Zm14.93 1.617.35 2.573-8.409 1.13-1.365-10.115 8.225-1.111.351 2.573-4.873.653.156 1.189 4.278-.575.332 2.455-4.278.575.175 1.326 5.058-.682v.009Zm10.086-9.91 2.299 9.949-3.293.76-1.696-7.347-3.031.701 1.696 7.348-3.294.76-2.3-9.949 9.619-2.222Zm5.72-2.3-4.561 1.842 3.82 9.472 3.197-1.287-.936-2.329 1.364-.555c.877-.351 1.579-.809 2.115-1.355.536-.555.867-1.169.994-1.851.136-.682.058-1.384-.234-2.105-.292-.721-.721-1.277-1.296-1.676-.575-.4-1.238-.614-2.007-.633-.77-.03-1.589.136-2.466.487l.01-.01Zm1.686 4.765-1.16.468-.896-2.222 1.159-.468c.429-.175.799-.204 1.092-.107.292.107.516.332.653.692.146.351.146.673 0 .945-.137.283-.42.507-.858.683l.01.009Zm13.038-.448c-.955.536-1.929.828-2.913.858a5.233 5.233 0 0 1-2.729-.644c-.828-.458-1.501-1.14-1.998-2.027-.506-.886-.74-1.812-.701-2.757a5.043 5.043 0 0 1 .857-2.67c.536-.829 1.287-1.511 2.242-2.057.955-.536 1.929-.828 2.913-.857a5.233 5.233 0 0 1 2.729.643c.828.458 1.501 1.14 1.998 2.027.506.887.74 1.812.701 2.758a5.043 5.043 0 0 1-.857 2.67c-.536.828-1.287 1.51-2.242 2.056Zm-1.374-2.426c.371-.215.653-.488.858-.848a2.27 2.27 0 0 0 .282-1.179c-.009-.439-.146-.877-.399-1.326-.253-.448-.565-.789-.926-1.023-.37-.234-.75-.36-1.159-.37-.4-.01-.79.087-1.16.302a2.24 2.24 0 0 0-.858.848c-.195.35-.292.74-.282 1.179.009.438.146.877.399 1.325.254.448.565.789.936 1.023.37.234.75.361 1.159.371.4.009.79-.088 1.16-.302h-.01Zm15.193-11.032-1.053.829-4.648-5.935-6.802 5.33 1.822 2.515c.848 1.189 1.403 2.153 1.676 2.894.273.74.176 1.296-.292 1.657l-.234.175 2.875 3.674 2.485-1.939-1.228-1.569 4.57-3.577 1.228 1.569 2.485-1.939-2.875-3.674-.009-.01Zm-8.147 1.121-.429-.594 1.852-1.452 3.001 3.839-2.485 1.939c-.058-.467-.253-1.013-.585-1.627a19.752 19.752 0 0 0-1.354-2.115v.01Zm10.817-15.153 2.767 8.263c.332.985.429 1.891.283 2.729a4.044 4.044 0 0 1-1.082 2.183c-.448.477-1.004.857-1.656 1.159l-1.248-2.29c.38-.233.663-.448.848-.643.175-.185.292-.37.351-.565.058-.195.078-.419.039-.672l-7.923-2.115 2.495-2.641 4.521 1.491-1.676-4.483 2.29-2.416h-.009Zm8.215-3.314-2.29-5.34-2.076 2.924 1.851 3.976-.604.857-3.108-2.202-1.988 2.806 8.332 5.906 1.987-2.807-3.011-2.134.556-.789 4.141.536 2.242-3.167-6.032-.575v.009Zm4.356-12.756-1.384 2.651 6.685 3.489-1.559 3.001-6.685-3.489-1.384 2.651-2.368-1.238 4.327-8.302 2.368 1.237Zm2.611-6.032-.692 1.998-2.962-1.023-1.101 3.196 9.657 3.313 1.647-4.784c.448-1.296.497-2.417.146-3.372-.351-.955-1.082-1.618-2.212-2.007-1.053-.361-1.959-.303-2.719.165-.76.468-1.355 1.306-1.764 2.514Zm4.2 2.154-.468 1.364-2.134-.731.468-1.364c.263-.75.711-1.023 1.355-.799.37.127.623.331.75.614.136.283.146.585.029.916Zm-5.564-7.815 1.101-3.197 9.657 3.314-1.101 3.196-9.657-3.313Z" fill="#fff"/></g><defs><clipPath id="ja"><path fill="#fff" d="M0 0h199v199H0z"/></clipPath></defs></symbol><symbol fill="none" viewBox="0 0 24 24" id="phone-call" xmlns="http://www.w3.org/2000/svg"><path d="M12.871 6.326c1.2.201 2.29.768 3.16 1.636a5.822 5.822 0 0 1 1.64 3.154M13.054 2.4a10.413 10.413 0 0 1 5.629 2.911 10.346 10.346 0 0 1 2.917 5.617m-1.667 8.474s-1.159 1.138-1.443 1.471c-.462.494-1.007.727-1.722.727-.068 0-.142 0-.21-.005-1.36-.086-2.624-.616-3.572-1.069a20.337 20.337 0 0 1-6.76-5.283c-1.562-1.879-2.606-3.616-3.297-5.48-.426-1.138-.582-2.025-.513-2.861.045-.535.251-.978.632-1.358l1.561-1.558c.225-.21.463-.325.696-.325.289 0 .522.174.669.32l.014.014c.28.26.545.53.824.818l.435.443 1.25 1.248c.486.485.486.933 0 1.417-.132.133-.26.265-.393.393-.385.393-.083.092-.481.448-.01.01-.019.014-.023.023-.394.393-.32.777-.238 1.037l.013.041c.326.787.783 1.527 1.48 2.409l.004.005c1.264 1.554 2.597 2.765 4.067 3.692.188.12.38.215.563.307.165.082.32.16.454.242.018.009.036.023.055.032a.996.996 0 0 0 .453.114c.38 0 .618-.238.696-.315l.898-.896c.155-.155.403-.343.691-.343.284 0 .518.178.66.334a.785.785 0 0 1 .009.009l2.523 2.518c.472.466.005 1.43.005 1.43Z" stroke="currentColor" stroke-width="2" stroke-linecap="round" stroke-linejoin="round"/></symbol></svg>