<svg width="138" height="18" viewBox="0 0 138 18" fill="none" xmlns="http://www.w3.org/2000/svg">
<path d="M4.95 7.81998H0.389999V10.1H4.95V7.81998Z" fill="#C9C9C9"/>
<path d="M105.7 10.1H97.3V7.81998H105.7V10.1ZM88.91 10.1H80.51V7.81998H88.91V10.1ZM72.12 10.1H63.73V7.81998H72.12V10.1ZM55.33 10.1H46.93V7.81998H55.33V10.1ZM38.54 10.1H30.14V7.81998H38.54V10.1ZM21.75 10.1H13.35V7.81998H21.75V10.1Z" fill="#C9C9C9"/>
<path d="M118.65 7.81998H114.09V10.1H118.65V7.81998Z" fill="#C9C9C9"/>
<path d="M114.56 8.95998L109.56 0.739983L109.84 0.549988L123.24 5.86999C127.91 6.89999 132.58 7.91998 137.25 8.94998C132.58 9.97998 127.91 11 123.24 12.03L109.84 17.35L109.56 17.21L114.56 8.94998V8.95998Z" fill="#C9C9C9"/>
</svg>
