<svg width="91" height="80" viewBox="0 0 91 80" fill="none" xmlns="http://www.w3.org/2000/svg">
<path fill-rule="evenodd" clip-rule="evenodd" d="M36.1846 1.0197L36.9231 0.914203C42.5495 0.105412 47.367 -0.597885 53.2044 2.39113C53.2747 2.3208 53.3802 2.25047 53.5561 2.18014C54.5055 1.79332 55.5253 1.40651 57.0725 1.26585C58.0923 1.16036 58.9714 1.26585 59.7802 1.51201C61.8901 2.14497 63.1209 3.48124 63.7187 5.23948C64.1055 6.43508 64.1055 7.70102 63.8594 8.89662C63.578 10.268 62.9802 11.6043 62.4879 12.5186C62.4528 12.5889 62.6638 13.0461 62.8396 13.679C63.0506 14.523 63.2616 15.367 63.367 16.4922C63.578 18.7779 63.0154 20.7823 62.4176 22.6109C62.8396 22.9626 63.0857 23.3142 63.3319 23.6659V23.701C64.9143 25.9867 66.5319 29.5735 67.411 33.1955C68.044 35.8329 68.3253 38.5757 67.9385 41.0724C68.3253 41.1779 68.7473 41.3186 69.1341 41.4241C69.6616 41.5648 70.189 41.7406 70.4352 41.8109C71.1033 42.0219 72.2637 41.9164 73.4242 41.8109C73.9517 41.7757 74.5143 41.7054 75.4637 41.7054C76.0264 41.7054 76.9055 41.4944 77.8198 41.3186C80.211 40.8263 82.6374 40.2988 85.3802 41.1428L90.5495 42.7252L88.1934 47.5779C87.1736 49.6527 85.8374 51.1999 84.2901 52.3604C83.9033 52.6417 83.5165 52.8878 83.1297 53.134C83.1297 54.9977 82.6725 56.756 82.3209 58.3032C82.1802 58.901 82.4264 57.7757 82.1802 58.7955L81.8638 60.167L80.8791 61.1164C77.8198 64.0351 75.3934 63.5779 73.0374 61.1164C72.1583 60.2021 71.7363 59.2878 71.244 58.1977C70.7165 57.0724 69.9429 55.3845 68.0791 55.6659C68.0791 55.6659 67.9736 55.6659 67.9033 55.7362C67.7626 55.8065 67.5165 55.912 67.2703 56.0527C66.9187 56.4043 66.567 56.756 66.0747 57.0724C65.9341 57.8109 65.6528 58.69 65.1956 59.7801C65.1253 59.956 65.1253 59.9911 64.9495 60.3779C64.5626 61.2922 64.1758 62.2065 63.7539 63.0856C62.7692 64.9845 61.433 66.6021 59.6747 67.6571C57.8813 68.7472 55.8066 69.2395 53.4506 68.8527C52.5363 68.712 51.6572 68.4307 50.8835 68.079C50.9187 68.9582 50.8835 69.8021 50.8132 70.6461C50.5319 73.1076 49.6528 75.2878 47.9648 77.0109C46.6989 78.2768 45.0462 79.2263 43.0066 79.6483C35.3055 81.3362 30.5231 76.9406 27.4989 70.9274C27.2879 70.5054 27.0769 70.0834 26.9011 69.6615C25.5297 71.1384 23.7714 72.0527 21.8374 72.545C19.2 73.2131 16.2813 72.967 13.855 72.2285C13.855 72.2285 13.8198 72.2285 13.5033 72.123C9.31869 70.7516 6.50551 67.6922 4.53627 64.0702C2.84836 60.9757 1.86375 57.4944 1.12529 54.5406C-0.105484 49.4417 -0.316473 43.4285 0.773637 37.7669C1.75825 32.5626 3.86814 27.5691 7.24397 23.6659C9.67034 20.8878 12.8352 18.3911 16 15.9296C19.7626 12.9757 23.455 10.0571 24.4044 7.94717C24.4396 7.84168 24.5451 7.45486 24.6506 7.03288C25.3539 4.39552 26.0923 1.51201 30.0308 0.386731C32.4572 -0.316566 34.1099 0.246071 35.7626 0.843873C36.1143 0.949368 36.1143 1.12519 36.2901 1.09003L36.1846 1.0197Z" fill="#1C2245"/>
<path fill-rule="evenodd" clip-rule="evenodd" d="M34.8836 37.0286C37.099 39.9121 38.2595 44.167 36.4309 47.578C34.6727 47.156 28.2375 44.5187 27.6045 42.9714C26.7254 40.8615 33.4771 37.4154 34.8836 37.0286ZM30.7342 41.8461C30.7342 42.7956 31.0507 43.2176 31.4375 43.3231H31.8946C32.4221 43.2176 32.9496 42.7253 32.9496 42.3385C32.9496 40.7912 30.7342 40.8967 30.7342 41.8461Z" fill="#91CAEE"/>
<path fill-rule="evenodd" clip-rule="evenodd" d="M44.5539 43.8507C47.0858 43.3935 47.6484 41.5649 48.4572 40.0529C49.4419 38.154 50.6023 35.3759 52.7825 34.5671C53.5913 34.7781 55.7012 37.099 57.2485 38.6463C58.9012 40.3342 60.6946 42.3386 62.6638 43.71C64.5979 45.0463 66.9891 45.5737 69.2045 46.2419C71.3144 46.8748 73.4946 46.3825 75.6748 46.3474C78.3122 46.277 81.5825 44.8001 84.1495 45.5737C82.7078 48.5627 80.3166 49.8287 77.9957 50.1803C79.2265 52.3605 78.3473 55.4902 77.8199 57.7759C75.077 60.4133 76.2023 49.5825 67.3056 51.0946C66.6023 51.2353 65.8638 51.5869 65.2309 51.9034C64.4572 52.2902 64.0001 53.0638 63.2616 53.4858C62.3473 53.9781 62.1012 53.4858 61.4331 52.7122C60.5891 51.7979 59.8155 50.8133 58.866 50.0397C57.2836 48.7386 55.1034 50.0397 53.1693 50.1452C48.5276 50.321 43.1473 48.8441 38.6111 47.9649C39.3495 45.8902 39.3847 43.499 39.0682 41.7759C39.0682 41.7759 41.1781 44.5188 44.5891 43.8858L44.5539 43.8507Z" fill="#91CAEE"/>
<path fill-rule="evenodd" clip-rule="evenodd" d="M54.1539 32.5275C57.3891 34.3912 59.6748 38.4703 63.2968 41.3538C64.5276 36.8879 61.9957 29.7494 59.6045 26.3033C59.499 26.1275 59.4287 25.9868 59.288 26.233C58.4792 27.745 54.5407 30.4176 54.1539 32.5275Z" fill="#FAFCFA"/>
<path fill-rule="evenodd" clip-rule="evenodd" d="M51.1649 53.345C50.5671 55.5604 49.4418 57.3889 49.8638 59.8153C50.2858 62.1713 51.9034 63.9296 54.2243 64.3164C56.721 64.7384 58.5847 63.1911 59.71 60.9757C60.2023 60.0263 60.6243 58.9713 61.0111 57.9867C61.644 56.4746 61.2221 56.4395 60.132 55.4549C58.866 54.3296 57.7759 51.868 55.877 52.6065C54.9627 52.9582 54.7166 53.5911 53.6968 53.556C52.9583 53.556 51.4111 52.7472 51.1298 53.345H51.1649Z" fill="#FAFCFA"/>
<path fill-rule="evenodd" clip-rule="evenodd" d="M30.6286 9.14286C30.6286 9.88132 33.6176 8.4044 34.4264 7.17363C33.4418 6.64616 33.1605 6.08352 31.7188 6.08352C31.1209 6.08352 30.6286 8.61539 30.6286 9.14286ZM54.3649 8.29891C54.9275 9.35385 55.666 10.5846 56.6858 11.1121C56.8968 10.7956 57.1429 10.5846 57.3539 10.1626C57.7056 9.49451 58.0572 8.61539 57.4242 8.05275C56.7209 7.45495 54.9275 8.01759 54.3649 8.26374V8.29891ZM36.8176 5.59122C42.233 4.81759 46.7693 4.0088 51.9385 6.92748C54.1539 7.45495 55.3847 6.01319 57.4946 5.83737C60.5891 5.55605 59.3231 8.75605 58.4792 10.3385C57.3187 12.4835 58.6198 14.5582 58.8308 16.844C59.0067 18.8835 58.1275 21.0286 57.5297 22.9275C57.0726 24.4396 56.5803 25.8462 55.3495 26.9714C53.9429 28.2725 52.1495 29.1517 50.8836 30.6989C49.6528 32.1758 48.5979 33.7231 48.1056 35.5517C47.7187 36.9231 47.6133 37.6264 46.8045 38.7517C43.7803 36.8879 41.1078 37.5912 39.5253 39.3846C38.9275 38.3297 38.7165 37.767 38.3649 36.3956C38.1187 35.4813 37.5209 32.1758 36.9583 31.6132C36.5715 32.1407 36.5012 32.7033 36.1495 33.3714C35.8682 33.8989 34.8836 32.5275 34.4968 32.1055C33.2308 30.8044 32.0704 29.3275 30.9451 27.9209C28.7297 25.0725 27.8506 22.3648 27.8506 18.6374H27.7803C27.7803 18.6374 26.5847 19.3055 26.444 19.4813C25.6352 23.5253 27.3935 26.7956 29.1517 30.3824C29.8902 31.8593 31.2264 32.9143 31.1209 34.6374C30.9451 37.5912 24.1231 39.8418 25.2484 43.0066C26.6902 47.0506 37.3803 50.2857 40.088 52.9582C43.2176 56.0528 51.3407 73.0374 42.0924 75.0418C32.0352 77.2571 29.0462 62.4879 27.8858 55.7714C27.1825 51.7626 25.0726 48.9495 23.2792 45.3626C21.099 40.967 21.2748 38.3648 21.4155 34.1451C18.1451 36.2198 18.9187 43.2528 20.1144 46.5582C21.8726 51.3758 26.3385 59.0769 24.7561 64.3165C23.4902 68.5363 18.4616 68.7824 14.9451 67.622C9.10776 65.6879 6.89237 58.655 5.59128 53.3802C3.55172 44.9055 4.71215 33.4418 10.6902 26.6198C15.7187 20.8528 26.1275 15.1561 28.5539 9.74067C29.2572 8.12308 29.2924 5.3099 31.2616 4.71209C33.1957 4.14946 34.8836 5.83737 36.888 5.55605L36.8176 5.59122ZM48.2111 29.3275C49.3363 29.3275 50.1803 27.6747 50.1803 26.6198C49.266 26.6198 48.1056 26.2681 46.1363 26.2681C45.7495 27.8506 47.1561 29.3275 48.2111 29.3275ZM40.2638 26.2681C39.5605 26.2681 37.6264 26.3736 36.3957 26.6901C36.1495 26.7604 36.6418 27.9209 36.9583 28.378C38.0484 30.0659 40.7209 28.4835 40.299 26.5143V26.3033L40.2638 26.2681Z" fill="#FAFCFA"/>
</svg>
