<svg width="36" height="43" viewBox="0 0 36 43" fill="none" xmlns="http://www.w3.org/2000/svg">
<path fill-rule="evenodd" clip-rule="evenodd" d="M16.2246 7.00417C15.2089 6.46952 14.2043 5.83027 13.2327 5.23751C12.7359 4.93531 12.1618 4.51689 11.4553 4.80746C10.9364 5.0283 10.4948 5.60944 10.6162 6.38816C10.7266 7.10878 11.2345 7.3761 11.7423 7.6783C13.2327 8.55001 14.7121 9.5147 16.2246 10.3399V19.2895L14.4251 18.2086C13.7185 17.7901 9.3466 15.0239 8.86083 14.8496C8.87187 13.5362 8.89396 12.1996 8.89396 10.8862C8.89396 9.50308 9.19204 8.15483 8.19842 7.57369C7.24897 7.00417 6.16703 7.70154 6.15599 9.09628C6.14495 10.4329 6.12287 11.7811 6.12287 13.1294C5.6371 12.9086 5.10717 12.525 4.63245 12.2461C4.13564 11.9555 3.66091 11.6533 3.18618 11.3627C2.85498 11.1651 2.04904 10.6072 1.7068 10.5143C0.150134 10.0958 -0.490196 12.1415 0.415099 12.9783C0.889826 13.42 2.62313 14.3498 3.28555 14.7566C3.52843 14.9077 3.74923 15.0355 3.99212 15.1866C4.14668 15.2796 4.235 15.3377 4.36748 15.4075C4.41164 15.4307 4.49996 15.4772 4.55516 15.5237L4.72077 15.6864C3.92587 16.0816 3.14202 16.6511 2.36921 17.1393C1.60744 17.6158 0.437177 18.0342 0.536539 19.243C0.5807 19.7893 0.945027 20.2309 1.32039 20.4169C1.90552 20.7075 2.40233 20.4983 2.84394 20.2193C3.66091 19.6963 4.42268 19.243 5.22861 18.7316C5.6371 18.4759 5.99039 18.2551 6.40991 17.9993C7.97762 17.0463 7.18273 17.1858 10.009 18.8478C10.7156 19.2662 14.2484 21.5211 14.8446 21.7651C14.5355 22.1138 12.9678 22.9507 12.4931 23.2296L8.30882 25.775C8.1101 25.9029 7.8893 26.0656 7.67953 26.1702C7.41457 26.3097 7.31521 26.1469 7.07232 25.9958L5.26174 24.88C4.4558 24.3686 3.66091 23.9037 2.87706 23.3923C2.45753 23.1134 2.01592 22.8925 1.40871 23.1366C0.989187 23.311 0.613821 23.741 0.55862 24.2873C0.404057 25.5658 1.55224 25.9377 2.34713 26.4259C2.76666 26.6816 3.11994 26.9024 3.52843 27.1581C3.91483 27.3906 4.37852 27.7276 4.74285 27.8904L4.42268 28.1461C3.59467 28.6458 0.856706 30.2149 0.437179 30.5985C-0.512276 31.4702 0.238455 33.539 1.77304 33.0509C2.13737 32.9347 2.87706 32.4233 3.24138 32.2024C3.60571 31.9816 5.97935 30.4939 6.14495 30.4822C6.14495 31.7956 6.16703 33.1206 6.17807 34.434C6.18911 35.9217 7.22689 36.5493 8.17634 36.0379C9.20308 35.4917 8.91603 34.1667 8.91603 32.7719C8.91603 31.4469 8.89396 30.0871 8.88291 28.7504L16.2246 24.3105L16.2467 33.2601C15.231 33.7599 12.8905 35.2476 11.7534 35.9217C11.2455 36.2239 10.7266 36.4912 10.6273 37.2118C10.5279 37.9557 10.9474 38.5833 11.4663 38.7925C12.3827 39.1529 13.6081 38.1184 14.7452 37.4792C15.22 37.2002 15.7609 36.8283 16.2467 36.5958C16.2688 37.8743 16.2467 39.1877 16.2467 40.4779C16.2467 41.0706 16.1694 41.7912 16.4234 42.2678C16.611 42.6165 17.0526 43 17.5936 43C18.1677 43 18.5872 42.6629 18.797 42.3026C19.084 41.8261 18.9957 41.1287 18.9957 40.536C18.9957 39.2342 18.9736 37.8976 18.9957 36.5958C19.614 36.8399 21.3142 37.9557 21.9986 38.3625C22.4844 38.6531 23.0585 39.0947 23.7651 38.7925C24.295 38.5601 24.7477 38.0138 24.6041 37.1654C24.4827 36.4215 23.9859 36.2355 23.4559 35.9101C22.9371 35.5963 22.4734 35.3406 21.9655 35.0151C21.259 34.5618 19.7685 33.8064 19.1613 33.3531C18.9516 33.1904 19.073 33.3298 18.9957 33.1555V24.3222C19.2938 24.4384 19.636 24.6941 19.9121 24.8568L22.6831 26.5537C23.2903 26.9257 23.8865 27.2743 24.5048 27.6579C25.0899 28.0182 25.7302 28.4715 26.3485 28.7621C26.3264 30.0754 26.3154 31.4237 26.3154 32.7254C26.3154 34.0969 26.0173 35.4568 27.0109 36.0379C27.9493 36.5958 29.0533 35.9566 29.0533 34.5154C29.0533 33.1671 29.0864 31.8305 29.0864 30.4706C30.0469 30.8193 32.6966 32.8533 33.5025 33.0741C35.0481 33.4925 35.7216 31.4702 34.7942 30.6101C34.1318 30.0057 31.6367 28.7737 30.6652 28.0647L30.5106 27.9252C30.8418 27.6695 31.3166 27.4138 31.6698 27.193C32.4537 26.7048 33.2596 26.2632 34.0214 25.7285C34.9046 25.1241 34.8936 23.6829 33.8889 23.1831C33.2817 22.8809 32.8401 23.1018 32.3764 23.3807L28.8104 25.589C27.32 26.5072 28.0487 26.4375 25.2113 24.7406C24.56 24.3454 20.9388 22.0557 20.3757 21.8233C20.453 21.7303 26.6466 17.8947 27.5408 17.4182C27.8058 17.2787 27.8941 17.4298 28.148 17.5809L32.3433 20.1844C32.7739 20.4518 33.1823 20.7075 33.8006 20.4401C34.2422 20.2542 34.5844 19.8939 34.6617 19.2895C34.8163 18.0342 33.646 17.639 32.8843 17.1509C32.4868 16.8952 32.1004 16.6627 31.703 16.4186C31.2945 16.1629 30.886 15.9537 30.4996 15.6632C30.6652 15.4656 30.9522 15.3493 31.173 15.2099C31.8796 14.7915 34.3747 13.3502 34.7832 12.9783C35.7547 12.0717 34.9819 10.0261 33.4473 10.5259C32.6083 10.7932 29.5391 13.0829 29.0754 13.0945C29.0754 11.7811 29.0533 10.4561 29.0423 9.14277C29.0312 7.5272 27.8941 7.07391 27.033 7.53882C26.0062 8.09672 26.2933 9.39847 26.3043 10.8048C26.3043 12.1298 26.3264 13.4781 26.3374 14.8147C25.3549 15.3493 19.6692 18.964 18.9736 19.2662V10.4329C19.0178 10.2121 19.4815 10.0493 19.6581 9.9215L23.3897 7.70154C23.9196 7.39935 24.4496 7.13202 24.571 6.42303C24.7145 5.58619 24.284 5.0283 23.7761 4.80746C23.0143 4.4704 22.4955 4.90044 21.9986 5.20264C21.4908 5.50483 21.0161 5.78378 20.5082 6.09759C20.1439 6.31843 19.3159 6.8647 18.9626 6.99255C18.9405 5.71404 18.9626 4.40066 18.9626 3.11053C18.9626 2.51777 19.0399 1.79716 18.786 1.32062C18.6204 0.983559 18.1677 0.600006 17.6267 0.600006C17.0526 0.600006 16.6331 0.937068 16.4234 1.29737C16.1474 1.77391 16.2246 2.45966 16.2246 3.06404C16.2246 4.3658 16.2467 5.70242 16.2246 7.00417Z" fill="white"/>
</svg>
