<svg width="41" height="43" viewBox="0 0 41 43" fill="none" xmlns="http://www.w3.org/2000/svg">
<path d="M27.8024 23.5097C29.1431 23.1491 30.1316 22.5361 31.0746 21.5024C31.9722 20.5047 32.4948 19.5071 32.847 18.1128C32.9947 17.5238 33.0061 17.3556 33.0175 16.2017C33.0175 15.0117 33.0061 14.8915 32.847 14.3266C32.7561 13.99 32.5289 13.4251 32.3585 13.0525C30.6656 9.43454 26.439 7.92004 23.0305 9.69897C19.906 11.3457 18.4176 15.0478 19.4743 18.5696C20.2809 21.262 22.3829 23.1731 25.0415 23.6299C25.8027 23.7621 27.0525 23.702 27.8024 23.4977M33.1424 29.4835C32.4153 28.7022 31.3586 28.1613 30.0066 27.8849C29.1999 27.7166 27.1434 27.4161 25.0415 27.1397C22.9396 26.8632 22.5306 26.755 21.5307 26.2262C18.7812 24.7477 17.1905 24.2789 14.4978 24.1588C13.2367 24.0987 13.2253 24.0987 12.8844 23.4736C12.7254 23.1852 12.6004 22.8847 12.6004 22.7765C12.6004 22.6202 12.7595 22.4519 13.6002 21.7067C14.7819 20.649 14.8387 20.6009 14.8046 20.3725C14.7137 19.8437 14.4183 18.7859 14.3274 18.6898C14.2479 18.6056 13.8275 18.5095 12.8958 18.3292C11.9641 18.1609 11.5324 18.0527 11.4529 17.9686C11.3165 17.8243 11.3165 17.7642 11.3279 16.0935C11.3392 14.7713 11.3392 14.7353 11.487 14.6391C11.5665 14.591 12.2141 14.4348 12.9299 14.3025C13.7252 14.1583 14.2706 14.0141 14.3387 13.954C14.3956 13.8939 14.4637 13.7617 14.4865 13.6415C14.5092 13.5213 14.6001 13.1486 14.691 12.8001C14.8387 12.2472 14.85 12.151 14.7705 12.0188C14.725 11.9346 14.2479 11.4899 13.7139 11.0211C13.1799 10.5524 12.714 10.1076 12.6799 10.0355C12.6458 9.9634 12.6345 9.83119 12.6459 9.75907C12.6799 9.60281 13.8729 7.39117 14.0093 7.21088C14.1456 7.03058 14.4069 7.09068 15.634 7.57147C16.293 7.82389 16.8838 8.04024 16.952 8.04024C17.1337 8.04024 18.3154 6.77817 18.3154 6.58585C18.3154 6.50171 18.1222 5.86466 17.8723 5.1555C17.6337 4.44633 17.4291 3.79726 17.4291 3.71313C17.4291 3.52081 17.5655 3.41263 18.8834 2.60731C19.4743 2.24671 19.9287 2.00632 20.031 2.00632C20.1749 2.00632 20.5612 2.40698 21.1899 3.2083C21.6103 3.74919 21.9852 4.20594 22.0193 4.22998C22.1329 4.31411 22.417 4.29007 22.8941 4.14584C23.1441 4.07372 23.4736 3.97756 23.6213 3.9415C23.7804 3.90544 23.9167 3.8213 23.9621 3.73717C23.9962 3.66505 24.1212 3.00396 24.2462 2.28277C24.4848 0.828382 24.4961 0.756263 24.6666 0.660105C24.7347 0.624046 25.3937 0.600006 26.1777 0.600006H27.5752L27.7002 0.780303C27.7683 0.876461 27.8365 1.0207 27.8365 1.09282C27.8365 1.17695 27.9388 1.77794 28.0524 2.43903C28.2342 3.42465 28.291 3.66505 28.416 3.79726C28.575 3.96554 29.6089 4.29007 29.9725 4.29007C30.1391 4.29007 30.5709 3.84935 31.2677 2.9679C31.9495 2.10248 32.0403 2.01834 32.2221 2.01834C32.3585 2.01834 32.7675 2.23469 33.4946 2.67943C34.0855 3.04002 34.6195 3.38859 34.6763 3.44869C34.7331 3.50879 34.7899 3.65303 34.7899 3.7612C34.7899 3.86938 34.5854 4.54249 34.3468 5.25166C34.0968 5.96082 33.9037 6.58585 33.9037 6.63393C33.9037 6.79019 35.1194 8.05226 35.2784 8.05226C35.358 8.05226 35.9601 7.83591 36.6191 7.58349C37.2781 7.33108 37.8916 7.11472 37.9825 7.11472C38.187 7.11472 38.2779 7.21088 38.562 7.76379C38.687 8.0162 38.9824 8.54507 39.1982 8.9297C39.4482 9.36242 39.5959 9.71099 39.5959 9.83119C39.5959 10.0596 39.4255 10.2399 38.2779 11.2495C37.8462 11.6221 37.4713 11.9827 37.4372 12.0548C37.3917 12.139 37.4372 12.3674 37.5622 12.8602C37.6644 13.2448 37.7439 13.6054 37.7439 13.6655C37.7439 13.7256 37.7894 13.8458 37.8576 13.9179C37.9485 14.0381 38.2211 14.0982 39.3573 14.3146C40.4367 14.5189 40.7662 14.603 40.8343 14.6992C40.9025 14.7954 40.9139 15.168 40.9139 16.3219C40.9139 17.7282 40.9139 17.8243 40.7889 17.9445C40.7207 18.0166 40.6412 18.0767 40.6071 18.0767C40.4367 18.0767 38.0166 18.5696 37.9257 18.6176C37.8576 18.6537 37.7894 18.7619 37.778 18.8701C37.7553 18.9662 37.6644 19.3629 37.5622 19.7475C37.4372 20.2403 37.4031 20.4807 37.4372 20.5648C37.4713 20.6249 37.8576 21.0096 38.3007 21.4062C39.4709 22.4519 39.5845 22.5721 39.5845 22.7885C39.5845 22.9087 39.3914 23.3174 39.1187 23.8342C38.8574 24.303 38.5506 24.8679 38.437 25.0843C38.3234 25.3006 38.1643 25.505 38.0848 25.529C37.9485 25.5891 37.4826 25.4328 36.0738 24.8679C35.6875 24.7117 35.3353 24.5915 35.2671 24.5915C35.1989 24.5915 34.8808 24.8799 34.5513 25.2285C34.04 25.7694 33.9491 25.9016 33.9491 26.0819C33.9491 26.2021 34.1423 26.8392 34.3581 27.5002C34.9035 29.0869 34.9149 29.0748 34.165 29.5316C33.8469 29.7239 33.5742 29.8802 33.5628 29.8802C33.5401 29.8802 33.3583 29.6999 33.1538 29.4715L33.1424 29.4835ZM0.511507 38.6426C0.386527 38.5945 0.227463 38.4623 0.147931 38.3301L0.00022723 38.1017V31.5749C0.00022723 24.3871 -0.0224961 24.6996 0.386527 24.4833C0.568315 24.3871 0.818272 24.3631 2.24985 24.3631C3.68143 24.3631 3.92003 24.3751 4.11318 24.4713C4.55629 24.6996 4.5222 24.2068 4.54492 31.3826C4.55629 35.878 4.54493 37.9574 4.49948 38.1257C4.45403 38.282 4.35178 38.4382 4.2268 38.5344C4.02229 38.6786 3.97684 38.6907 2.37483 38.7027C1.20457 38.7027 0.659209 38.7027 0.511507 38.6306V38.6426ZM20.7354 42.8855C19.9174 42.6572 17.5428 41.5634 13.7707 39.6643C8.27158 36.9117 8.36247 36.9478 7.04451 36.7795C6.31736 36.6954 6.03331 36.5632 5.86289 36.2386C5.73791 36.0102 5.73791 35.878 5.71519 31.6471C5.70382 28.6902 5.71518 27.2118 5.76063 27.0435C5.84016 26.755 6.12421 26.4906 6.44234 26.3824C8.13524 25.8656 9.8395 25.4809 11.4301 25.2646C12.6572 25.0963 15.1568 25.0963 16.0544 25.2646C17.8154 25.5891 19.4174 26.2021 21.3489 27.2719C22.3033 27.8128 23.0191 27.9931 24.7007 28.1133C27.8365 28.3537 30.7792 28.9787 31.8131 29.6157C32.7107 30.1686 33.097 31.1302 32.8016 32.0678C32.438 33.2217 31.654 33.9789 30.7337 34.051C30.5292 34.063 29.359 34.0029 28.1205 33.9188C23.4963 33.5702 23.0646 33.5462 22.0988 33.6183C21.2126 33.6784 21.099 33.7024 21.1672 33.7866C21.2694 33.8948 23.3259 34.7842 23.9508 34.9765C25.4505 35.4573 26.4504 35.5174 28.6091 35.2891C32.3698 34.8804 32.7334 34.7482 34.6649 33.0293C35.7556 32.0557 36.9373 31.5629 38.0507 31.611C38.5393 31.635 38.6642 31.6591 39.0392 31.8634C39.9822 32.3803 40.164 33.1856 39.5164 33.9669C39.38 34.1352 39.2664 34.2914 39.2664 34.3275C39.2664 34.3635 39.3459 34.4357 39.4255 34.4837C39.7095 34.652 39.8913 34.9285 39.8913 35.229C39.8913 35.5295 39.6641 36.0583 39.3914 36.4069C39.2096 36.6473 38.5279 37.2483 37.778 37.8493C37.0622 38.4262 33.8128 40.746 33.4492 40.9383C32.7789 41.2869 32.0403 41.4913 30.4838 41.7196C29.9611 41.8038 28.6205 42.0081 27.507 42.2004C22.3033 43.0658 21.6557 43.1259 20.7354 42.8615V42.8855Z" fill="white"/>
</svg>
