<svg width="40" height="37" viewBox="0 0 40 37" fill="none" xmlns="http://www.w3.org/2000/svg">
<path d="M3.762 8.83872C2.89595 9.74143 1.49584 9.74143 0.629791 8.80812C-0.221822 7.89011 -0.207389 6.40599 0.658659 5.48798C8.43865 -2.59051 14.6742 1.35694 20.9097 5.28908C25.7885 8.36441 30.6528 11.4397 36.1666 5.24318C37.0038 4.29457 38.4039 4.24867 39.2988 5.13608C40.1937 6.02349 40.237 7.50761 39.3999 8.45622C31.4467 17.3915 25.0523 13.3523 18.6436 9.31303C13.8803 6.29889 9.10262 3.28476 3.762 8.82342" fill="white"/>
<path d="M3.762 20.0385C2.89595 20.9412 1.49584 20.9412 0.629791 20.0079C-0.221822 19.0898 -0.207389 17.6057 0.658659 16.6877C8.43865 8.60923 14.6742 12.5567 20.9097 16.4888C25.7885 19.5642 30.6528 22.6395 36.1666 16.4429C37.0038 15.4943 38.4039 15.4484 39.2988 16.3358C40.1937 17.2232 40.237 18.7073 39.3999 19.656C31.4467 28.5913 25.0523 24.552 18.6436 20.5128C13.8803 17.4986 9.10262 14.4845 3.762 20.0232" fill="white"/>
<path d="M3.762 31.2382C2.89595 32.1409 1.49584 32.1409 0.629791 31.2076C-0.221822 30.2896 -0.207389 28.8055 0.658659 27.8875C8.43865 19.809 14.6742 23.7564 20.9097 27.6886C25.7885 30.7639 30.6528 33.8392 36.1666 27.6427C37.0038 26.694 38.4039 26.6481 39.2988 27.5356C40.1937 28.423 40.237 29.9071 39.3999 30.8557C31.4467 39.791 25.0523 35.7517 18.6436 31.7125C13.8803 28.6984 9.10262 25.6842 3.762 31.2229" fill="white"/>
</svg>
