<svg width="50" height="34" viewBox="0 0 50 34" fill="none" xmlns="http://www.w3.org/2000/svg">
<path fill-rule="evenodd" clip-rule="evenodd" d="M45.8509 29.7276C45.317 32.1801 43.2481 34.0077 40.7786 34.0077C38.3092 34.0077 36.2291 32.1801 35.7063 29.7276H26.04C25.5061 32.1801 23.4371 34.0077 20.9677 34.0077C18.4983 34.0077 16.4182 32.1801 15.8954 29.7276C14.594 29.7159 13.7264 29.3032 12.9922 28.6783C12.2914 28.0769 11.6574 26.9214 11.6574 25.931V18.6324C11.6574 17.5595 13.2814 16.7695 14.1713 17.9368C14.4605 18.3023 14.4271 18.656 14.4271 19.2927V22.5352C14.4271 23.5021 14.2603 25.6126 14.6162 26.3908C14.8721 26.9332 15.2058 27.3223 15.8621 27.3459C16.3626 24.8462 18.4538 22.9715 20.9566 22.9715C23.4594 22.9715 25.5506 24.8462 26.0512 27.3459H31.6351V5.46202C31.6351 4.81352 31.2458 4.27114 30.8343 4.02353C30.5784 3.87025 30.4672 3.84667 30.2225 3.83488H1.41268C0.634038 3.83488 0 3.1628 0 2.33744C0 1.51208 0.634038 0.839996 1.41268 0.839996H30.6897C30.7898 0.839996 30.8788 0.839996 30.9789 0.875369C32.7364 1.12298 34.4605 2.7737 34.4605 4.69561V7.83199C36.2291 7.83199 42.4917 7.67871 43.5929 8.18571C44.3826 8.55123 44.8721 8.94033 45.3281 9.68315C45.9511 10.6618 49.2881 15.6258 49.7108 16.7459C49.8554 17.1232 50 17.583 50 18.1136V25.9664C50 26.4969 49.7664 27.1808 49.5884 27.5581C48.9099 28.9612 47.564 29.7159 45.8732 29.7159M20.99 25.3532C22.614 25.3532 23.9377 26.7563 23.9377 28.4778C23.9377 30.1993 22.614 31.6024 20.99 31.6024C19.366 31.6024 18.0423 30.1993 18.0423 28.4778C18.0423 26.7563 19.366 25.3532 20.99 25.3532ZM40.8009 25.3532C42.4249 25.3532 43.7486 26.7563 43.7486 28.4778C43.7486 30.1993 42.4249 31.6024 40.8009 31.6024C39.1769 31.6024 37.8532 30.1993 37.8532 28.4778C37.8532 26.7563 39.1769 25.3532 40.8009 25.3532ZM34.2937 27.3813H35.6952C36.1735 24.858 38.2759 22.9597 40.8009 22.9597C43.3259 22.9597 45.4171 24.858 45.9066 27.3695C46.7075 27.2634 47.3304 26.5441 47.3304 25.6598V18.8565C47.3415 18.3141 47.3304 17.9014 47.1524 17.5948L43.4928 11.7466C43.0033 10.9566 42.4917 10.3434 41.5907 10.3434H35.9177C35.0278 10.3434 34.2937 11.1216 34.2937 12.0649V27.3931V27.3813ZM5.32814 6.12231H19.6552C20.4338 6.12231 21.0679 6.79439 21.0679 7.61975C21.0679 8.44511 20.4338 9.11719 19.6552 9.11719H5.32814C4.5495 9.11719 3.91546 8.44511 3.91546 7.61975C3.91546 6.79439 4.5495 6.12231 5.32814 6.12231ZM9.29922 11.7466H19.6552C20.4338 11.7466 21.0679 12.4186 21.0679 13.244C21.0679 14.0694 20.4338 14.7414 19.6552 14.7414H9.29922C8.52058 14.7414 7.88654 14.0694 7.88654 13.244C7.88654 12.4186 8.52058 11.7466 9.29922 11.7466Z" fill="white"/>
</svg>
