<svg width="199" height="199" viewBox="0 0 199 199" fill="none" xmlns="http://www.w3.org/2000/svg">
<g clip-path="url(#clip0_12_143)">
<path d="M99.5049 199.01C154.46 199.01 199.01 154.46 199.01 99.5049C199.01 44.5498 154.46 0 99.5049 0C44.5498 0 0 44.5498 0 99.5049C0 154.46 44.5498 199.01 99.5049 199.01Z" fill="#172049"/>
<path fill-rule="evenodd" clip-rule="evenodd" d="M15.2569 88.5514C15.4616 86.9728 15.8904 85.628 16.5627 84.5268C17.2351 83.4256 18.0927 82.6168 19.1549 82.1003C20.2073 81.5936 21.3865 81.4182 22.6923 81.5839C23.9981 81.7495 25.0895 82.2075 25.986 82.9676C26.8826 83.7277 27.516 84.7217 27.8863 85.9593C28.2566 87.1969 28.3443 88.6002 28.1397 90.1788L27.8278 92.6443L32.0279 93.1803L31.297 98.9395L14.2142 96.7664L15.2569 88.5417V88.5514ZM23.657 89.9937C23.7545 89.2141 23.657 88.6002 23.3549 88.1714C23.0528 87.7329 22.5851 87.4795 21.9517 87.4015C21.3182 87.3236 20.8018 87.4503 20.4022 87.8011C20.0027 88.1519 19.7493 88.7074 19.6519 89.4869L19.3888 91.5821L23.3939 92.0888L23.657 89.9937ZM24.3879 59.2973L22.3317 64.5108L27.7791 70.465L19.7786 70.9814L17.5275 76.6822L31.2483 75.0061C31.4627 75.3959 31.5893 75.7564 31.6186 76.0878C31.6478 76.4288 31.5796 76.7894 31.4237 77.1889C31.258 77.6177 30.9462 78.1244 30.4979 78.7286L33.8891 81.5254C34.7272 80.6386 35.3509 79.6836 35.7601 78.6701C36.2864 77.3448 36.3936 75.9806 36.0817 74.5773C35.7699 73.174 35.0488 71.8098 33.9184 70.4845L24.3976 59.2973H24.3879ZM47.0155 58.3423C45.8948 59.7748 44.5792 60.8273 43.0785 61.4997C41.5778 62.1721 40.0284 62.4157 38.44 62.2208C36.8516 62.0259 35.3703 61.3925 34.0061 60.3205C32.6418 59.2486 31.677 57.9623 31.1118 56.4616C30.5466 54.9609 30.42 53.4017 30.722 51.784C31.0241 50.1664 31.7355 48.6364 32.8659 47.2137C33.8989 45.8981 35.0585 44.9042 36.3253 44.2415C37.6019 43.5789 38.937 43.2475 40.3402 43.267L40.6521 48.1687C38.937 48.1687 37.6312 48.7436 36.7444 49.8838C35.994 50.8388 35.7017 51.8425 35.8576 52.9047C36.0135 53.9669 36.6079 54.9024 37.6409 55.7112C38.6739 56.52 39.7263 56.8806 40.7885 56.7832C41.8604 56.6857 42.7667 56.1595 43.5171 55.2045C44.4136 54.0741 44.6572 52.6708 44.2577 50.9947L49.0911 50.1372C49.4419 51.5014 49.4419 52.8755 49.0911 54.269C48.7403 55.6625 48.0582 57.017 47.0252 58.3326L47.0155 58.3423ZM59.713 46.132C61.0286 45.0991 62.0226 43.9492 62.6852 42.6726C63.3479 41.396 63.6792 40.061 63.6597 38.6577L58.758 38.3459C58.758 40.061 58.1831 41.3668 57.0429 42.2536C56.0879 43.0039 55.0842 43.2963 54.022 43.1403C52.9598 42.9844 52.0243 42.39 51.2155 41.357C50.4067 40.3241 50.0461 39.2716 50.1436 38.2094C50.241 37.1375 50.7672 36.2312 51.7222 35.4809C52.8526 34.5941 54.2559 34.3407 55.932 34.7403L56.7896 29.9068C55.4253 29.556 54.0513 29.556 52.6577 29.9068C51.2642 30.2576 49.9097 30.9398 48.5941 31.9727C47.1616 33.0934 46.1092 34.4089 45.4368 35.9096C44.7644 37.4104 44.5208 38.9598 44.7157 40.5482C44.9106 42.1366 45.544 43.6178 46.6159 44.9821C47.6879 46.3464 48.9742 47.3111 50.4749 47.8764C51.9756 48.4416 53.5348 48.5682 55.1524 48.2661C56.7701 47.9641 58.3 47.2527 59.7228 46.1223L59.713 46.132ZM75.2074 27.6557L83.1884 34.0289L77.0979 36.4261L71.7479 31.846L70.2375 32.4405L72.5178 38.2289L67.1191 40.3631L60.8045 24.3425L66.2031 22.2084L68.5614 28.182L70.2083 27.5291L71.2607 20.2107L76.8932 17.9888L75.1976 27.646L75.2074 27.6557ZM82.3211 16.8487L84.4942 33.9314L89.9319 33.2396L94.6581 23.6409L95.7788 32.4989L101.441 31.7778L99.2675 14.6951L93.8493 15.3869L89.0938 25.0149L87.9634 16.1276L82.3016 16.8487H82.3211ZM107.638 15.2505L113.261 16.2542L111.682 25.0733L119.089 17.2969L124.468 18.2617L121.437 35.208L115.824 34.2043L117.393 25.4144L110.016 33.1713L104.617 32.2066L107.648 15.2603L107.638 15.2505ZM116.214 15.7865C118.085 16.1178 119.508 16.0204 120.472 15.4747C121.437 14.9289 122.041 13.9642 122.285 12.5804L118.484 11.8983C118.387 12.444 118.202 12.824 117.919 13.0189C117.646 13.2236 117.227 13.2723 116.682 13.1749C116.136 13.0774 115.775 12.8825 115.6 12.6097C115.424 12.3271 115.385 11.9178 115.483 11.3623L111.682 10.6802C111.439 12.0639 111.663 13.1846 112.355 14.0227C113.056 14.8607 114.343 15.4552 116.214 15.7865ZM154.911 34.2725L142.096 41.4545C140.576 42.312 139.095 42.7505 137.662 42.7895C136.23 42.8285 134.914 42.4582 133.706 41.6884C132.78 41.0939 131.961 40.3046 131.26 39.3009L134.651 36.5138C135.148 37.0693 135.596 37.4688 135.986 37.7222C136.347 37.9561 136.688 38.0828 137.029 38.1217C137.36 38.1607 137.74 38.112 138.159 37.9756L139.163 24.1866L144.318 27.4901L143.285 35.4419L150.184 31.2419L154.901 34.2725H154.911ZM170.23 50.9655L160.709 39.9733L155.486 44.2025C154.453 45.0308 153.585 45.674 152.893 46.1223C152.202 46.5705 151.558 46.8336 150.983 46.9214C150.399 46.9993 149.912 46.8142 149.512 46.3561C149.376 46.1905 149.249 46.0151 149.151 45.8202L145.448 48.6364C145.858 49.4355 146.316 50.1177 146.813 50.7024C147.807 51.8523 148.908 52.4564 150.106 52.4954C151.305 52.5441 152.611 52.1738 154.014 51.3845C155.417 50.6049 157.074 49.4258 158.974 47.8666L160.514 46.5998L163.087 49.572L153.478 57.8941L157.21 62.2111L170.23 50.9362V50.9655ZM162.268 72.9694C161.508 71.2835 161.167 69.6074 161.264 67.941C161.362 66.2747 161.859 64.7837 162.765 63.4584C163.671 62.1331 164.909 61.1099 166.478 60.4083C168.047 59.6969 169.625 59.4435 171.224 59.6384C172.812 59.8333 174.264 60.4472 175.58 61.4802C176.885 62.5034 177.928 63.8677 178.688 65.5535C179.448 67.2394 179.789 68.9155 179.692 70.5819C179.594 72.2483 179.097 73.7392 178.191 75.0645C177.285 76.3898 176.047 77.4131 174.478 78.1147C172.909 78.8261 171.331 79.0794 169.733 78.8845C168.144 78.6896 166.692 78.0757 165.377 77.0427C164.071 76.0195 163.028 74.6553 162.268 72.9694ZM166.546 71.0302C166.838 71.6831 167.277 72.2093 167.832 72.5893C168.398 72.9791 169.041 73.1935 169.772 73.2422C170.502 73.291 171.263 73.1351 172.062 72.7745C172.851 72.4139 173.475 71.9462 173.923 71.3712C174.371 70.7865 174.634 70.1629 174.722 69.4905C174.8 68.8181 174.693 68.1457 174.4 67.4928C174.108 66.8399 173.67 66.3136 173.114 65.9336C172.549 65.5438 171.906 65.3294 171.175 65.2904C170.444 65.2417 169.684 65.3976 168.885 65.7582C168.095 66.1187 167.472 66.5865 167.024 67.1712C166.575 67.7559 166.312 68.3796 166.224 69.052C166.146 69.7243 166.254 70.3967 166.546 71.0497V71.0302ZM177.694 95.8211C177.47 96.8248 177.061 97.6239 176.447 98.2086C175.833 98.803 175.044 99.1539 174.069 99.2805C172.539 99.4754 171.253 99.0272 170.21 97.926C169.167 96.8248 168.505 95.1682 168.232 92.9561L167.072 83.8252L184.155 81.6521L185.256 90.3153C185.529 92.4299 185.344 94.1158 184.71 95.3826C184.077 96.6494 183.054 97.3705 181.641 97.546C180.822 97.6531 180.091 97.546 179.419 97.2439C178.756 96.9418 178.181 96.4643 177.704 95.8114L177.694 95.8211ZM178.308 88.1519L178.62 90.5881C178.737 91.5334 179.214 91.9524 180.043 91.8452C180.9 91.738 181.28 91.2118 181.154 90.2665L180.842 87.8303L178.308 88.1519ZM172.227 92.1765C172.344 93.1218 172.861 93.5311 173.777 93.4141C174.654 93.3069 175.034 92.771 174.917 91.8355L174.508 88.6391L171.828 88.9802L172.237 92.1765H172.227Z" fill="#94CBF0"/>
<path fill-rule="evenodd" clip-rule="evenodd" d="M86.0102 46.9119L87.1211 46.7559C95.6283 45.5281 102.908 44.4854 111.766 48.9778C111.893 48.8901 112.058 48.7634 112.321 48.6659C113.783 48.091 115.284 47.4965 117.652 47.2822H117.681C119.211 47.1457 120.575 47.2822 121.793 47.633C124.99 48.5685 126.841 50.6052 127.738 53.2947C128.342 55.117 128.342 57.0173 127.972 58.8396C127.562 60.886 126.666 62.9129 125.915 64.3064C125.857 64.4234 126.198 65.0958 126.432 66.041C126.744 67.3079 127.065 68.6039 127.211 70.2898C127.523 73.759 126.705 76.7701 125.789 79.5669C126.432 80.0931 126.783 80.6096 127.153 81.1651L127.202 81.2333C129.579 84.7025 132.025 90.1206 133.36 95.5875C134.335 99.5829 134.744 103.744 134.179 107.486C134.773 107.671 135.387 107.847 135.992 108.022C136.791 108.256 137.58 108.48 137.95 108.597C138.944 108.899 140.689 108.763 142.452 108.616C143.261 108.548 144.08 108.48 145.522 108.441C146.35 108.421 147.705 108.139 149.079 107.847C152.685 107.096 156.388 106.317 160.529 107.583L168.354 109.971L164.778 117.289C163.248 120.427 161.202 122.785 158.873 124.52C158.298 124.949 157.703 125.339 157.109 125.689C157.06 128.486 156.427 131.156 155.871 133.505C155.657 134.411 156.047 132.715 155.686 134.275L155.208 136.321L153.688 137.763C149.069 142.148 145.415 141.486 141.829 137.715C140.523 136.341 139.88 134.957 139.11 133.31C138.321 131.624 137.141 129.081 134.315 129.47C134.276 129.48 134.179 129.519 134.062 129.568C133.828 129.665 133.468 129.85 133.097 130.036L133.117 130.055C133.117 130.055 133.175 130.055 133.146 130.084C132.61 130.611 132.074 131.127 131.334 131.644C131.129 132.745 130.681 134.07 129.979 135.746C129.872 135.999 129.862 136.038 129.599 136.662C129.034 138.026 128.449 139.43 127.777 140.745C126.305 143.591 124.249 146.046 121.589 147.674C118.88 149.321 115.732 150.061 112.175 149.477C110.791 149.252 109.486 148.843 108.277 148.288C108.345 149.603 108.316 150.899 108.18 152.166C107.78 155.869 106.445 159.183 103.853 161.775C101.924 163.704 99.4483 165.098 96.33 165.78C84.6751 168.333 77.4444 161.687 72.8448 152.595C72.5233 151.962 72.2212 151.309 71.9288 150.656C69.8629 152.878 67.1831 154.261 64.2596 155.002C60.2837 156.006 55.84 155.645 52.1662 154.534H52.137C52.0298 154.505 52.0785 154.505 51.5913 154.349H51.562C45.2084 152.264 40.9596 147.635 37.9972 142.187C35.4343 137.481 33.9336 132.238 32.8616 127.765C31.0101 120.067 30.6983 110.955 32.3354 102.389C33.8361 94.4961 36.9935 86.9438 42.1193 81.0774C45.7638 76.8968 50.5778 73.1061 55.343 69.3543C61.0243 64.8814 66.6081 60.467 68.0406 57.2707C68.1088 57.1245 68.2647 56.5203 68.4304 55.9064C69.4926 51.8915 70.6327 47.555 76.5479 45.8399C80.2217 44.768 82.7066 45.6353 85.2306 46.5221C85.7373 46.6975 85.7763 46.9411 86.0102 46.9119Z" fill="#172049"/>
<path fill-rule="evenodd" clip-rule="evenodd" d="M84.032 101.366C87.3647 105.712 89.1285 112.183 86.361 117.309C83.7104 116.666 73.9752 112.709 73.0008 110.361C71.6755 107.164 81.8881 101.951 84.032 101.366ZM77.7757 108.675C77.7757 110.117 78.2532 110.751 78.8574 110.906H79.5493C80.3484 110.721 81.128 110 81.128 109.415C81.128 107.057 77.7757 107.233 77.7757 108.675Z" fill="#94CBF0"/>
<path fill-rule="evenodd" clip-rule="evenodd" d="M98.6493 111.657C102.479 110.955 103.337 108.207 104.525 105.927C106.007 103.071 107.77 98.8324 111.064 97.624C112.273 97.9553 115.479 101.434 117.808 103.793C120.332 106.346 123.021 109.357 126.023 111.423C128.936 113.43 132.571 114.22 135.894 115.243C139.071 116.217 142.404 115.477 145.698 115.389C149.683 115.282 154.614 113.05 158.493 114.229C156.29 118.751 152.724 120.671 149.167 121.207C151.018 124.52 149.683 129.256 148.884 132.715C144.713 136.681 146.438 120.31 132.99 122.62C131.938 122.824 130.798 123.37 129.862 123.847C128.663 124.461 127.991 125.621 126.9 126.215C125.516 126.976 125.165 126.176 124.132 125.036C122.865 123.643 121.667 122.181 120.224 120.992C117.847 119.034 114.524 121.041 111.59 121.148C104.564 121.402 96.4372 119.15 89.5865 117.864C90.717 114.726 90.7559 111.101 90.2784 108.49C90.2784 108.47 93.4748 112.612 98.6493 111.666V111.657Z" fill="#94CBF0"/>
<path fill-rule="evenodd" clip-rule="evenodd" d="M113.169 94.5546C118.042 97.3806 121.52 103.559 126.978 107.905C128.858 101.152 125.019 90.3643 121.423 85.1216C121.248 84.8682 121.131 84.6246 120.926 85.0241C119.727 87.3044 113.725 91.3778 113.169 94.5546Z" fill="#FBFDFC"/>
<path fill-rule="evenodd" clip-rule="evenodd" d="M108.638 126.05C107.741 129.422 106.026 132.15 106.679 135.814C107.312 139.4 109.768 142.032 113.286 142.606C117.077 143.23 119.864 140.901 121.589 137.559C122.32 136.136 122.943 134.528 123.567 133.057C124.522 130.796 123.869 130.708 122.232 129.217C120.341 127.512 118.675 123.789 115.8 124.91C114.387 125.465 114.036 126.401 112.506 126.352C111.366 126.313 109.066 125.153 108.647 126.05H108.638Z" fill="#FBFDFC"/>
<path fill-rule="evenodd" clip-rule="evenodd" d="M77.5906 59.1805C77.5906 60.3109 82.1122 58.0696 83.3596 56.2083C81.8588 55.4092 81.4593 54.5322 79.2667 54.5322C78.3507 54.5322 77.5906 58.3424 77.5906 59.1805ZM113.5 57.8747C114.348 59.4728 115.449 61.3146 117.038 62.1527C117.369 61.6557 117.7 61.3438 118.032 60.7299C118.568 59.7262 119.123 58.3717 118.12 57.5433C117.057 56.6663 114.368 57.4654 113.51 57.8747H113.5ZM86.9846 53.8013C95.1996 52.6319 102.011 51.3846 109.856 55.8477C113.218 56.6663 115.069 54.4835 118.275 54.1911C122.953 53.7721 121.062 58.6153 119.776 61.0223C118.032 64.2771 119.971 67.3857 120.283 70.8841C120.556 73.9537 119.211 77.1988 118.295 80.093C117.584 82.3635 116.872 84.4782 114.991 86.2128C112.857 88.1812 110.177 89.5163 108.238 91.8453C106.396 94.0574 104.798 96.4059 104.028 99.1929C103.463 101.249 103.268 102.311 102.07 104.056C97.4799 101.259 93.4552 102.282 91.0677 105.011C90.1907 103.422 89.8691 102.535 89.2942 100.47C88.9239 99.115 88.0468 94.0769 87.1406 93.2388C86.5559 94.0087 86.4389 94.9149 85.8932 95.8797C85.4547 96.669 83.9735 94.5933 83.3985 93.9892C81.4983 92.0012 79.715 89.8086 78.0291 87.6647C74.6574 83.377 73.3711 79.2354 73.3516 73.6516L73.2444 73.5834C73.0105 73.5249 71.4513 74.6651 71.2272 74.9379C69.9799 81.0382 72.6694 85.9886 75.3298 91.4165C76.4212 93.6481 78.4676 95.2463 78.302 97.8481C78.0194 102.292 67.719 105.732 69.4049 110.507C71.5683 116.636 87.774 121.509 91.8278 125.543C96.5346 130.25 108.852 155.898 94.8585 158.968C79.6273 162.301 75.1349 140.004 73.3711 129.841C72.3186 123.789 69.1126 119.54 66.4035 114.083C63.0902 107.427 63.3631 103.5 63.597 97.0978C58.6271 100.226 59.8062 110.877 61.609 115.847C64.2499 123.126 71.0031 134.762 68.6156 142.704C66.6861 149.096 59.0851 149.476 53.7546 147.722C44.9453 144.828 41.5541 134.177 39.6246 126.157C36.555 113.352 38.309 95.9966 47.3523 85.6573C54.963 76.9356 70.7107 68.3309 74.3943 60.1062C75.4857 57.67 75.5052 53.3823 78.4871 52.515C81.4008 51.6672 83.9832 54.2301 86.9944 53.8013H86.9846ZM104.194 89.6917C105.919 89.6917 107.176 87.1872 107.176 85.5988C105.802 85.5696 104.067 85.0434 101.037 85.0434C100.481 87.4406 102.586 89.6917 104.204 89.6917H104.194ZM92.1592 85.0629C91.1165 85.0239 88.1638 85.2285 86.283 85.6963C85.903 85.7937 86.6631 87.5381 87.1113 88.2397C88.768 90.8026 92.8023 88.3761 92.1592 85.4039V85.0629Z" fill="#FBFDFC"/>
<path fill-rule="evenodd" clip-rule="evenodd" d="M26.2223 118.517C26.4367 119.433 26.4659 120.271 26.3197 121.022C26.1736 121.772 25.8617 122.396 25.3745 122.902C24.8872 123.399 24.2733 123.74 23.5132 123.916C22.7531 124.091 22.0515 124.062 21.3986 123.818C20.7457 123.584 20.1902 123.156 19.7225 122.542C19.2645 121.928 18.9234 121.168 18.709 120.242L18.3777 118.809L15.9317 119.375L15.1619 116.022L25.1114 113.723L26.2125 118.517H26.2223ZM21.2524 119.443C21.3596 119.901 21.535 120.213 21.7981 120.398C22.0515 120.583 22.3633 120.622 22.7336 120.544C23.1039 120.456 23.367 120.281 23.5132 120.008C23.6691 119.735 23.6886 119.365 23.5814 118.917L23.2988 117.699L20.9698 118.235L21.2524 119.453V119.443ZM26.5244 129.5L25.6571 127.57L28.5123 126.284L27.1188 123.195L17.8125 127.395L19.8979 132.004C20.4631 133.251 21.1939 134.109 22.1002 134.567C23.0065 135.025 24.0005 135.005 25.0919 134.508C26.1054 134.05 26.729 133.388 26.9629 132.53C27.1968 131.673 27.0506 130.659 26.5244 129.49V129.5ZM21.993 130.805L21.3986 129.49L23.4548 128.554L24.0492 129.87C24.3805 130.601 24.2343 131.098 23.6107 131.38C23.2599 131.536 22.9285 131.566 22.6459 131.449C22.3536 131.332 22.1392 131.117 21.993 130.796V130.805ZM31.4066 132.686L32.8001 135.766L23.4937 139.966L22.1002 136.876L31.4066 132.676V132.686ZM33.5212 136.876L24.9457 142.421L27.8692 146.943C28.6 148.073 29.4284 148.804 30.3346 149.116C31.2409 149.428 32.1374 149.301 33.0145 148.736C33.8525 148.19 34.3203 147.498 34.3982 146.651C34.4859 145.803 34.1839 144.858 33.5115 143.815L32.1862 141.768L33.1801 141.125L36.1523 145.715L38.3352 144.302L33.5212 136.867V136.876ZM29.7694 145.442L28.8144 143.961L30.1885 143.074L31.1435 144.555C31.5332 145.16 31.5138 145.608 31.0655 145.89C30.8414 146.037 30.6075 146.076 30.3834 145.988C30.1592 145.91 29.9546 145.725 29.7694 145.442ZM37.5166 156.483L34.9537 153.569L33.1606 154.232L30.8511 151.601L41.473 148.22L43.7046 150.763L38.9686 160.849L36.6201 158.169L37.5069 156.483H37.5166ZM38.7542 154.135L40.0308 151.698L37.4484 152.644L38.7542 154.135ZM53.0304 159.524L55.7882 161.482L52.7186 165.819L58.6532 163.519L61.2941 165.39L55.3887 173.722L52.6309 171.763L55.6908 167.446L49.7756 169.746L47.125 167.865L53.0304 159.533V159.524ZM74.3717 181.985L75.8529 177.571L72.5397 180.378L71.1072 179.881L70.1717 175.778L68.7099 180.027L65.7475 179.004L69.0607 169.346L71.7406 170.262L73.1146 176.489L77.9481 172.397L80.6279 173.313L77.3341 182.979L74.3717 181.956V181.985ZM85.169 184.773C86.2507 184.958 87.2642 184.899 88.1997 184.597C89.1352 184.295 89.9245 183.779 90.5482 183.067C91.1719 182.346 91.5714 181.488 91.7468 180.485C91.9222 179.481 91.8248 178.536 91.4739 177.649C91.1231 176.762 90.5482 176.022 89.7686 175.427C88.9793 174.833 88.0437 174.443 86.9621 174.258C85.8804 174.073 84.8669 174.131 83.9314 174.433C82.9959 174.735 82.2066 175.252 81.5829 175.963C80.9592 176.684 80.5597 177.542 80.3843 178.546C80.2089 179.549 80.3063 180.495 80.6571 181.381C81.0079 182.268 81.5829 183.009 82.3625 183.603C83.1518 184.198 84.0873 184.587 85.169 184.773ZM85.6368 182.024C85.2177 181.956 84.8474 181.781 84.5453 181.518C84.2432 181.255 84.0191 180.914 83.8827 180.504C83.7463 180.095 83.717 179.627 83.8047 179.12C83.8924 178.614 84.0678 178.185 84.3309 177.844C84.5941 177.503 84.9156 177.249 85.2957 177.103C85.6757 176.957 86.0655 176.918 86.4943 176.986C86.9133 177.055 87.2836 177.23 87.5857 177.493C87.8878 177.756 88.112 178.097 88.2484 178.507C88.3848 178.916 88.4141 179.384 88.3264 179.89C88.2386 180.397 88.0632 180.826 87.8001 181.167C87.537 181.508 87.2154 181.761 86.8354 181.908C86.4553 182.054 86.0655 182.093 85.6368 182.024ZM98.2564 175.564C99.2016 175.583 100.02 175.749 100.712 176.07C101.404 176.392 101.94 176.85 102.31 177.444C102.681 178.039 102.856 178.721 102.846 179.501C102.836 180.28 102.632 180.953 102.242 181.537C101.852 182.112 101.307 182.551 100.595 182.853C99.8935 183.155 99.0652 183.291 98.1199 183.272L96.6485 183.243L96.5997 185.747L93.1598 185.689L93.3352 175.476L98.2466 175.564H98.2564ZM97.9445 180.602C98.4123 180.602 98.7631 180.514 98.997 180.309C99.2309 180.105 99.3575 179.812 99.3575 179.432C99.3575 179.052 99.2503 178.76 99.0262 178.546C98.7923 178.331 98.4513 178.224 97.9835 178.214L96.7264 178.195L96.6874 180.582L97.9445 180.602ZM112.874 182.219L113.224 184.792L104.815 185.922L103.45 175.807L111.675 174.696L112.026 177.269L107.153 177.922L107.309 179.111L111.587 178.536L111.919 180.991L107.641 181.566L107.816 182.892L112.874 182.21V182.219ZM122.96 172.309L125.259 182.258L121.966 183.018L120.27 175.671L117.239 176.372L118.935 183.72L115.641 184.48L113.341 174.531L122.96 172.309ZM128.68 170.009L124.119 171.851L127.939 181.323L131.136 180.036L130.2 177.707L131.564 177.152C132.441 176.801 133.143 176.343 133.679 175.797C134.215 175.242 134.546 174.628 134.673 173.946C134.809 173.264 134.731 172.562 134.439 171.841C134.147 171.12 133.718 170.564 133.143 170.165C132.568 169.765 131.905 169.551 131.136 169.532C130.366 169.502 129.547 169.668 128.67 170.019L128.68 170.009ZM130.366 174.774L129.206 175.242L128.31 173.02L129.469 172.552C129.898 172.377 130.268 172.348 130.561 172.445C130.853 172.552 131.077 172.777 131.214 173.137C131.36 173.488 131.36 173.81 131.214 174.082C131.077 174.365 130.794 174.589 130.356 174.765L130.366 174.774ZM143.404 174.326C142.449 174.862 141.475 175.154 140.491 175.184C139.506 175.213 138.59 174.998 137.762 174.54C136.934 174.082 136.261 173.4 135.764 172.513C135.258 171.627 135.024 170.701 135.063 169.756C135.092 168.801 135.375 167.914 135.92 167.086C136.456 166.257 137.207 165.575 138.162 165.029C139.117 164.493 140.091 164.201 141.075 164.172C142.06 164.143 142.976 164.357 143.804 164.815C144.632 165.273 145.305 165.955 145.802 166.842C146.308 167.729 146.542 168.654 146.503 169.6C146.474 170.555 146.191 171.442 145.646 172.27C145.11 173.098 144.359 173.78 143.404 174.326ZM142.03 171.9C142.401 171.685 142.683 171.412 142.888 171.052C143.083 170.701 143.18 170.311 143.17 169.873C143.161 169.434 143.024 168.996 142.771 168.547C142.518 168.099 142.206 167.758 141.845 167.524C141.475 167.29 141.095 167.164 140.686 167.154C140.286 167.144 139.896 167.241 139.526 167.456C139.156 167.67 138.873 167.943 138.668 168.304C138.473 168.654 138.376 169.044 138.386 169.483C138.395 169.921 138.532 170.36 138.785 170.808C139.039 171.256 139.35 171.597 139.721 171.831C140.091 172.065 140.471 172.192 140.88 172.202C141.28 172.211 141.67 172.114 142.04 171.9H142.03ZM157.223 160.868L156.17 161.697L151.522 155.762L144.72 161.092L146.542 163.607C147.39 164.796 147.945 165.76 148.218 166.501C148.491 167.241 148.394 167.797 147.926 168.158L147.692 168.333L150.567 172.007L153.052 170.068L151.824 168.499L156.394 164.922L157.622 166.491L160.107 164.552L157.232 160.878L157.223 160.868ZM149.076 161.989L148.647 161.395L150.499 159.943L153.5 163.782L151.015 165.721C150.957 165.254 150.762 164.708 150.43 164.094C150.099 163.48 149.651 162.778 149.076 161.979V161.989ZM159.893 146.836L162.66 155.099C162.992 156.084 163.089 156.99 162.943 157.828C162.806 158.666 162.446 159.397 161.861 160.011C161.413 160.488 160.857 160.868 160.205 161.17L158.957 158.88C159.337 158.647 159.62 158.432 159.805 158.237C159.98 158.052 160.097 157.867 160.156 157.672C160.214 157.477 160.234 157.253 160.195 157L152.272 154.885L154.767 152.244L159.288 153.735L157.612 149.252L159.902 146.836H159.893ZM168.108 143.522L165.818 138.182L163.742 141.106L165.593 145.082L164.989 145.939L161.881 143.737L159.893 146.543L168.225 152.449L170.212 149.642L167.201 147.508L167.757 146.719L171.898 147.255L174.14 144.088L168.108 143.513V143.522ZM172.464 130.766L171.08 133.417L177.765 136.906L176.206 139.907L169.521 136.418L168.137 139.069L165.769 137.831L170.096 129.529L172.464 130.766ZM175.075 124.734L174.383 126.732L171.421 125.709L170.32 128.905L179.977 132.218L181.624 127.434C182.072 126.138 182.121 125.017 181.77 124.062C181.419 123.107 180.688 122.444 179.558 122.055C178.505 121.694 177.599 121.752 176.839 122.22C176.079 122.688 175.484 123.526 175.075 124.734ZM179.275 126.888L178.807 128.252L176.673 127.521L177.141 126.157C177.404 125.407 177.852 125.134 178.496 125.358C178.866 125.485 179.119 125.689 179.246 125.972C179.382 126.255 179.392 126.557 179.275 126.888ZM173.711 119.073L174.812 115.876L184.469 119.19L183.368 122.386L173.711 119.073Z" fill="white"/>
</g>
<defs>
<clipPath id="clip0_12_143">
<rect width="199" height="199" fill="white"/>
</clipPath>
</defs>
</svg>
